<svg xmlns="http://www.w3.org/2000/svg" xmlns:xlink="http://www.w3.org/1999/xlink" width="400" zoomAndPan="magnify" viewBox="0 0 300 294.749989" height="393" preserveAspectRatio="xMidYMid meet" version="1.0"><defs><clipPath id="ba6b1082c2"><path d="M 0.128906 0 L 299.871094 0 L 299.871094 294.5 L 0.128906 294.5 Z M 0.128906 0 " clip-rule="nonzero"/></clipPath><clipPath id="16c8c13712"><path d="M 0.128906 0 L 299.871094 0 L 299.871094 294.5 L 0.128906 294.5 Z M 0.128906 0 " clip-rule="nonzero"/></clipPath><clipPath id="31229b4275"><path d="M 22.609375 0 L 277.390625 0 C 289.808594 0 299.871094 10.066406 299.871094 22.480469 L 299.871094 272.019531 C 299.871094 284.433594 289.808594 294.5 277.390625 294.5 L 22.609375 294.5 C 10.191406 294.5 0.128906 284.433594 0.128906 272.019531 L 0.128906 22.480469 C 0.128906 10.066406 10.191406 0 22.609375 0 " clip-rule="nonzero"/></clipPath><clipPath id="3c7ae8f994"><path d="M 36.097656 30.722656 L 266.152344 30.722656 L 266.152344 260.777344 L 36.097656 260.777344 Z M 36.097656 30.722656 " clip-rule="nonzero"/></clipPath></defs><g clip-path="url(#ba6b1082c2)"><path fill="#ffffff" d="M 0.128906 0 L 299.871094 0 L 299.871094 301.246094 L 0.128906 301.246094 Z M 0.128906 0 " fill-opacity="1" fill-rule="nonzero"/><path fill="#ffffff" d="M 0.128906 0 L 299.871094 0 L 299.871094 294.5 L 0.128906 294.5 Z M 0.128906 0 " fill-opacity="1" fill-rule="nonzero"/></g><g clip-path="url(#16c8c13712)"><g clip-path="url(#31229b4275)"><path fill="#ffffff" d="M 0.128906 0 L 299.871094 0 L 299.871094 294.5 L 0.128906 294.5 Z M 0.128906 0 " fill-opacity="1" fill-rule="nonzero"/></g></g><path fill="#53b79a" d="M 239.460938 120.246094 C 242.703125 120.246094 245.328125 122.867188 245.328125 126.109375 C 245.328125 129.347656 242.703125 131.972656 239.460938 131.972656 C 236.226562 131.972656 233.601562 129.347656 233.601562 126.109375 C 233.601562 122.867188 236.226562 120.246094 239.460938 120.246094 Z M 239.460938 120.246094 " fill-opacity="1" fill-rule="nonzero"/><path fill="#53b79a" d="M 202.363281 65.589844 C 205.601562 65.589844 208.226562 68.210938 208.226562 71.453125 C 208.226562 74.691406 205.601562 77.316406 202.363281 77.316406 C 199.125 77.316406 196.5 74.691406 196.5 71.453125 C 196.5 68.210938 199.125 65.589844 202.363281 65.589844 Z M 202.363281 65.589844 " fill-opacity="1" fill-rule="nonzero"/><path fill="#53b79a" d="M 160.910156 87.789062 C 164.148438 87.789062 166.769531 90.417969 166.769531 93.65625 C 166.769531 96.890625 164.148438 99.519531 160.910156 99.519531 C 157.667969 99.519531 155.046875 96.890625 155.046875 93.65625 C 155.046875 90.417969 157.667969 87.789062 160.910156 87.789062 Z M 160.910156 87.789062 " fill-opacity="1" fill-rule="nonzero"/><path fill="#53b79a" d="M 198.332031 125.082031 C 201.570312 125.082031 204.195312 127.707031 204.195312 130.945312 C 204.195312 134.183594 201.570312 136.808594 198.332031 136.808594 C 195.09375 136.808594 192.464844 134.183594 192.464844 130.945312 C 192.464844 127.707031 195.09375 125.082031 198.332031 125.082031 Z M 198.332031 125.082031 " fill-opacity="1" fill-rule="nonzero"/><path fill="#53b79a" d="M 201.070312 101.984375 C 204.308594 101.984375 206.933594 104.609375 206.933594 107.851562 C 206.933594 111.089844 204.308594 113.710938 201.070312 113.710938 C 197.832031 113.710938 195.207031 111.089844 195.207031 107.851562 C 195.207031 104.609375 197.832031 101.984375 201.070312 101.984375 Z M 201.070312 101.984375 " fill-opacity="1" fill-rule="nonzero"/><path fill="#6fceae" d="M 237.941406 99.519531 C 241.179688 99.519531 243.804688 102.144531 243.804688 105.382812 C 243.804688 108.625 241.179688 111.246094 237.941406 111.246094 C 234.703125 111.246094 232.078125 108.625 232.078125 105.382812 C 232.078125 102.144531 234.703125 99.519531 237.941406 99.519531 Z M 237.941406 99.519531 " fill-opacity="1" fill-rule="nonzero"/><path fill="#6fceae" d="M 225.984375 77.316406 C 222.746094 77.316406 220.117188 74.691406 220.117188 71.453125 C 220.117188 68.210938 222.746094 65.589844 225.984375 65.589844 C 229.21875 65.589844 231.847656 68.210938 231.847656 71.453125 C 231.847656 74.691406 229.21875 77.316406 225.984375 77.316406 Z M 225.984375 77.316406 " fill-opacity="1" fill-rule="nonzero"/><path fill="#6fceae" d="M 220.117188 112.648438 C 223.359375 112.648438 225.984375 115.273438 225.984375 118.515625 C 225.984375 121.75 223.359375 124.375 220.117188 124.375 C 216.882812 124.375 214.257812 121.75 214.257812 118.515625 C 214.257812 115.273438 216.882812 112.648438 220.117188 112.648438 Z M 220.117188 112.648438 " fill-opacity="1" fill-rule="nonzero"/><path fill="#6fceae" d="M 182.574219 79.558594 C 185.816406 79.558594 188.441406 82.183594 188.441406 85.421875 C 188.441406 88.664062 185.816406 91.285156 182.574219 91.285156 C 179.335938 91.285156 176.714844 88.664062 176.714844 85.421875 C 176.714844 82.183594 179.335938 79.558594 182.574219 79.558594 Z M 182.574219 79.558594 " fill-opacity="1" fill-rule="nonzero"/><path fill="#6fceae" d="M 223.5625 91.953125 C 223.5625 92.339844 223.527344 92.71875 223.453125 93.097656 C 223.375 93.476562 223.265625 93.84375 223.117188 94.199219 C 222.96875 94.554688 222.789062 94.890625 222.574219 95.210938 C 222.363281 95.53125 222.117188 95.828125 221.847656 96.101562 C 221.574219 96.375 221.277344 96.617188 220.957031 96.832031 C 220.636719 97.042969 220.300781 97.226562 219.941406 97.371094 C 219.585938 97.519531 219.21875 97.632812 218.84375 97.707031 C 218.464844 97.78125 218.082031 97.820312 217.699219 97.820312 C 217.3125 97.820312 216.933594 97.78125 216.554688 97.707031 C 216.175781 97.632812 215.808594 97.519531 215.453125 97.371094 C 215.097656 97.226562 214.761719 97.042969 214.441406 96.832031 C 214.121094 96.617188 213.824219 96.375 213.550781 96.101562 C 213.277344 95.828125 213.035156 95.53125 212.820312 95.210938 C 212.609375 94.890625 212.425781 94.554688 212.28125 94.199219 C 212.132812 93.84375 212.019531 93.476562 211.945312 93.097656 C 211.871094 92.71875 211.832031 92.339844 211.832031 91.953125 C 211.832031 91.566406 211.871094 91.1875 211.945312 90.808594 C 212.019531 90.429688 212.132812 90.0625 212.28125 89.707031 C 212.425781 89.351562 212.609375 89.015625 212.820312 88.695312 C 213.035156 88.375 213.277344 88.078125 213.550781 87.804688 C 213.824219 87.535156 214.121094 87.289062 214.441406 87.078125 C 214.761719 86.863281 215.097656 86.679688 215.453125 86.535156 C 215.808594 86.386719 216.175781 86.277344 216.554688 86.199219 C 216.933594 86.125 217.3125 86.085938 217.699219 86.085938 C 218.082031 86.085938 218.464844 86.125 218.84375 86.199219 C 219.21875 86.277344 219.585938 86.386719 219.941406 86.535156 C 220.300781 86.679688 220.636719 86.863281 220.957031 87.078125 C 221.277344 87.289062 221.574219 87.535156 221.847656 87.804688 C 222.117188 88.078125 222.363281 88.375 222.574219 88.695312 C 222.789062 89.015625 222.96875 89.351562 223.117188 89.707031 C 223.265625 90.0625 223.375 90.429688 223.453125 90.808594 C 223.527344 91.1875 223.5625 91.566406 223.5625 91.953125 Z M 223.5625 91.953125 " fill-opacity="1" fill-rule="nonzero"/><path fill="#6fceae" d="M 178.652344 104.417969 C 181.894531 104.417969 184.519531 107.042969 184.519531 110.285156 C 184.519531 113.519531 181.894531 116.144531 178.652344 116.144531 C 175.417969 116.144531 172.792969 113.519531 172.792969 110.285156 C 172.792969 107.042969 175.417969 104.417969 178.652344 104.417969 Z M 178.652344 104.417969 " fill-opacity="1" fill-rule="nonzero"/><path fill="#d14b62" d="M 197.28125 225.578125 C 200.523438 225.578125 203.148438 228.203125 203.148438 231.441406 C 203.148438 234.679688 200.523438 237.304688 197.28125 237.304688 C 194.042969 237.304688 191.421875 234.679688 191.421875 231.441406 C 191.421875 228.203125 194.042969 225.578125 197.28125 225.578125 Z M 197.28125 225.578125 " fill-opacity="1" fill-rule="nonzero"/><path fill="#d14b62" d="M 198.332031 179.410156 C 201.570312 179.410156 204.195312 182.035156 204.195312 185.273438 C 204.195312 188.511719 201.570312 191.136719 198.332031 191.136719 C 195.09375 191.136719 192.464844 188.511719 192.464844 185.273438 C 192.464844 182.035156 195.09375 179.410156 198.332031 179.410156 Z M 198.332031 179.410156 " fill-opacity="1" fill-rule="nonzero"/><path fill="#d14b62" d="M 183.074219 192.554688 C 186.316406 192.554688 188.941406 195.1875 188.941406 198.421875 C 188.941406 201.664062 186.316406 204.289062 183.074219 204.289062 C 179.839844 204.289062 177.214844 201.664062 177.214844 198.421875 C 177.214844 195.1875 179.839844 192.554688 183.074219 192.554688 Z M 183.074219 192.554688 " fill-opacity="1" fill-rule="nonzero"/><path fill="#e15c63" d="M 220.117188 208.875 C 223.359375 208.875 225.984375 211.5 225.984375 214.742188 C 225.984375 217.976562 223.359375 220.601562 220.117188 220.601562 C 216.882812 220.601562 214.257812 217.976562 214.257812 214.742188 C 214.257812 211.5 216.882812 208.875 220.117188 208.875 Z M 220.117188 208.875 " fill-opacity="1" fill-rule="nonzero"/><path fill="#e15c63" d="M 221.570312 195.351562 C 221.570312 195.734375 221.53125 196.117188 221.457031 196.496094 C 221.382812 196.871094 221.269531 197.238281 221.121094 197.59375 C 220.976562 197.949219 220.792969 198.289062 220.582031 198.609375 C 220.367188 198.929688 220.125 199.226562 219.851562 199.496094 C 219.578125 199.769531 219.28125 200.011719 218.960938 200.226562 C 218.640625 200.441406 218.304688 200.621094 217.949219 200.769531 C 217.59375 200.917969 217.226562 201.027344 216.847656 201.101562 C 216.46875 201.179688 216.089844 201.214844 215.703125 201.214844 C 215.320312 201.214844 214.9375 201.179688 214.558594 201.101562 C 214.183594 201.027344 213.816406 200.917969 213.460938 200.769531 C 213.101562 200.621094 212.765625 200.441406 212.445312 200.226562 C 212.125 200.011719 211.828125 199.769531 211.554688 199.496094 C 211.285156 199.226562 211.039062 198.929688 210.828125 198.609375 C 210.613281 198.289062 210.433594 197.949219 210.285156 197.59375 C 210.136719 197.238281 210.027344 196.871094 209.949219 196.496094 C 209.875 196.117188 209.839844 195.734375 209.839844 195.351562 C 209.839844 194.964844 209.875 194.582031 209.949219 194.207031 C 210.027344 193.828125 210.136719 193.460938 210.285156 193.105469 C 210.433594 192.75 210.613281 192.410156 210.828125 192.089844 C 211.039062 191.769531 211.285156 191.476562 211.554688 191.203125 C 211.828125 190.929688 212.125 190.6875 212.445312 190.472656 C 212.765625 190.257812 213.101562 190.078125 213.460938 189.929688 C 213.816406 189.785156 214.183594 189.671875 214.558594 189.597656 C 214.9375 189.523438 215.320312 189.484375 215.703125 189.484375 C 216.089844 189.484375 216.46875 189.523438 216.847656 189.597656 C 217.226562 189.671875 217.59375 189.785156 217.949219 189.929688 C 218.304688 190.078125 218.640625 190.257812 218.960938 190.472656 C 219.28125 190.6875 219.578125 190.929688 219.851562 191.203125 C 220.125 191.476562 220.367188 191.769531 220.582031 192.089844 C 220.792969 192.410156 220.976562 192.75 221.121094 193.105469 C 221.269531 193.460938 221.382812 193.828125 221.457031 194.207031 C 221.53125 194.582031 221.570312 194.964844 221.570312 195.351562 Z M 221.570312 195.351562 " fill-opacity="1" fill-rule="nonzero"/><path fill="#e15c63" d="M 178.652344 171.632812 C 181.894531 171.632812 184.519531 174.257812 184.519531 177.496094 C 184.519531 180.734375 181.894531 183.363281 178.652344 183.363281 C 175.417969 183.363281 172.792969 180.734375 172.792969 177.496094 C 172.792969 174.257812 175.417969 171.632812 178.652344 171.632812 Z M 178.652344 171.632812 " fill-opacity="1" fill-rule="nonzero"/><path fill="#e15c63" d="M 199.105469 205.035156 C 202.34375 205.035156 204.96875 207.660156 204.96875 210.902344 C 204.96875 214.136719 202.34375 216.761719 199.105469 216.761719 C 195.867188 216.761719 193.242188 214.136719 193.242188 210.902344 C 193.242188 207.660156 195.867188 205.035156 199.105469 205.035156 Z M 199.105469 205.035156 " fill-opacity="1" fill-rule="nonzero"/><path fill="#e15c63" d="M 180.304688 213.191406 C 183.546875 213.191406 186.171875 215.820312 186.171875 219.058594 C 186.171875 222.300781 183.546875 224.925781 180.304688 224.925781 C 177.070312 224.925781 174.445312 222.300781 174.445312 219.058594 C 174.445312 215.820312 177.070312 213.191406 180.304688 213.191406 Z M 180.304688 213.191406 " fill-opacity="1" fill-rule="nonzero"/><path fill="#ceabd8" d="M 94.144531 148.066406 C 97.378906 148.066406 100.003906 150.695312 100.003906 153.929688 C 100.003906 157.171875 97.378906 159.796875 94.144531 159.796875 C 90.902344 159.796875 88.277344 157.171875 88.277344 153.929688 C 88.277344 150.695312 90.902344 148.066406 94.144531 148.066406 Z M 94.144531 148.066406 " fill-opacity="1" fill-rule="nonzero"/><path fill="#ceabd8" d="M 87.21875 127.6875 C 90.457031 127.6875 93.085938 130.3125 93.085938 133.550781 C 93.085938 136.792969 90.457031 139.414062 87.21875 139.414062 C 83.984375 139.414062 81.355469 136.792969 81.355469 133.550781 C 81.355469 130.3125 83.984375 127.6875 87.21875 127.6875 Z M 87.21875 127.6875 " fill-opacity="1" fill-rule="nonzero"/><path fill="#ceabd8" d="M 95.773438 109.28125 C 99.011719 109.28125 101.636719 111.90625 101.636719 115.140625 C 101.636719 118.382812 99.011719 121.007812 95.773438 121.007812 C 92.53125 121.007812 89.910156 118.382812 89.910156 115.140625 C 89.910156 111.90625 92.53125 109.28125 95.773438 109.28125 Z M 95.773438 109.28125 " fill-opacity="1" fill-rule="nonzero"/><path fill="#995899" d="M 116.175781 112.648438 C 119.414062 112.648438 122.039062 115.273438 122.039062 118.515625 C 122.039062 121.75 119.414062 124.375 116.175781 124.375 C 112.9375 124.375 110.3125 121.75 110.3125 118.515625 C 110.3125 115.273438 112.9375 112.648438 116.175781 112.648438 Z M 116.175781 112.648438 " fill-opacity="1" fill-rule="nonzero"/><path fill="#ceabd8" d="M 133.585938 135.253906 C 136.824219 135.253906 139.449219 137.878906 139.449219 141.113281 C 139.449219 144.355469 136.824219 146.980469 133.585938 146.980469 C 130.347656 146.980469 127.722656 144.355469 127.722656 141.113281 C 127.722656 137.878906 130.347656 135.253906 133.585938 135.253906 Z M 133.585938 135.253906 " fill-opacity="1" fill-rule="nonzero"/><path fill="#995899" d="M 117.648438 178.5625 C 117.648438 178.945312 117.609375 179.328125 117.535156 179.707031 C 117.460938 180.082031 117.347656 180.449219 117.199219 180.804688 C 117.054688 181.160156 116.871094 181.5 116.660156 181.820312 C 116.445312 182.140625 116.203125 182.4375 115.929688 182.710938 C 115.65625 182.980469 115.359375 183.222656 115.039062 183.4375 C 114.71875 183.652344 114.382812 183.832031 114.027344 183.980469 C 113.671875 184.128906 113.304688 184.238281 112.925781 184.3125 C 112.546875 184.390625 112.167969 184.425781 111.78125 184.425781 C 111.398438 184.425781 111.015625 184.390625 110.636719 184.3125 C 110.261719 184.238281 109.894531 184.128906 109.539062 183.980469 C 109.179688 183.832031 108.84375 183.652344 108.523438 183.4375 C 108.203125 183.222656 107.90625 182.980469 107.632812 182.710938 C 107.363281 182.4375 107.117188 182.140625 106.90625 181.820312 C 106.691406 181.5 106.511719 181.160156 106.363281 180.804688 C 106.214844 180.449219 106.105469 180.082031 106.027344 179.707031 C 105.953125 179.328125 105.917969 178.945312 105.917969 178.5625 C 105.917969 178.175781 105.953125 177.796875 106.027344 177.417969 C 106.105469 177.039062 106.214844 176.671875 106.363281 176.316406 C 106.511719 175.960938 106.691406 175.625 106.90625 175.304688 C 107.117188 174.984375 107.363281 174.6875 107.632812 174.414062 C 107.90625 174.140625 108.203125 173.898438 108.523438 173.683594 C 108.84375 173.46875 109.179688 173.289062 109.539062 173.140625 C 109.894531 172.996094 110.261719 172.882812 110.636719 172.808594 C 111.015625 172.734375 111.398438 172.695312 111.78125 172.695312 C 112.167969 172.695312 112.546875 172.734375 112.925781 172.808594 C 113.304688 172.882812 113.671875 172.996094 114.027344 173.140625 C 114.382812 173.289062 114.71875 173.46875 115.039062 173.683594 C 115.359375 173.898438 115.65625 174.140625 115.929688 174.414062 C 116.203125 174.6875 116.445312 174.984375 116.660156 175.304688 C 116.871094 175.625 117.054688 175.960938 117.199219 176.316406 C 117.347656 176.671875 117.460938 177.039062 117.535156 177.417969 C 117.609375 177.796875 117.648438 178.175781 117.648438 178.5625 Z M 117.648438 178.5625 " fill-opacity="1" fill-rule="nonzero"/><path fill="#995899" d="M 74.085938 111.582031 C 77.324219 111.582031 79.949219 114.207031 79.949219 117.445312 C 79.949219 120.683594 77.324219 123.308594 74.085938 123.308594 C 70.847656 123.308594 68.222656 120.683594 68.222656 117.445312 C 68.222656 114.207031 70.847656 111.582031 74.085938 111.582031 Z M 74.085938 111.582031 " fill-opacity="1" fill-rule="nonzero"/><path fill="#995899" d="M 108.21875 133.550781 C 111.457031 133.550781 114.082031 136.179688 114.082031 139.414062 C 114.082031 142.65625 111.457031 145.28125 108.21875 145.28125 C 104.980469 145.28125 102.355469 142.65625 102.355469 139.414062 C 102.355469 136.179688 104.980469 133.550781 108.21875 133.550781 Z M 108.21875 133.550781 " fill-opacity="1" fill-rule="nonzero"/><path fill="#995899" d="M 73.578125 145.28125 C 76.816406 145.28125 79.441406 147.90625 79.441406 151.140625 C 79.441406 154.382812 76.816406 157.007812 73.578125 157.007812 C 70.339844 157.007812 67.714844 154.382812 67.714844 151.140625 C 67.714844 147.90625 70.339844 145.28125 73.578125 145.28125 Z M 73.578125 145.28125 " fill-opacity="1" fill-rule="nonzero"/><g clip-path="url(#3c7ae8f994)"><path fill="#604533" d="M 264.324219 247.851562 L 49.023438 247.851562 L 49.023438 32.550781 C 49.023438 31.542969 48.207031 30.722656 47.199219 30.722656 C 46.1875 30.722656 45.371094 31.542969 45.371094 32.550781 L 45.371094 49.113281 L 37.921875 49.113281 C 36.914062 49.113281 36.097656 49.933594 36.097656 50.941406 C 36.097656 51.949219 36.914062 52.765625 37.921875 52.765625 L 45.371094 52.765625 L 45.371094 78.28125 L 37.921875 78.28125 C 36.914062 78.28125 36.097656 79.101562 36.097656 80.109375 C 36.097656 81.117188 36.914062 81.933594 37.921875 81.933594 L 45.371094 81.933594 L 45.371094 107.453125 L 37.921875 107.453125 C 36.914062 107.453125 36.097656 108.273438 36.097656 109.28125 C 36.097656 110.289062 36.914062 111.105469 37.921875 111.105469 L 45.371094 111.105469 L 45.371094 136.621094 L 37.921875 136.621094 C 36.914062 136.621094 36.097656 137.441406 36.097656 138.449219 C 36.097656 139.457031 36.914062 140.273438 37.921875 140.273438 L 45.371094 140.273438 L 45.371094 165.789062 L 37.921875 165.789062 C 36.914062 165.789062 36.097656 166.605469 36.097656 167.617188 C 36.097656 168.625 36.914062 169.441406 37.921875 169.441406 L 45.371094 169.441406 L 45.371094 194.957031 L 37.921875 194.957031 C 36.914062 194.957031 36.097656 195.773438 36.097656 196.785156 C 36.097656 197.792969 36.914062 198.609375 37.921875 198.609375 L 45.371094 198.609375 L 45.371094 224.128906 L 37.921875 224.128906 C 36.914062 224.128906 36.097656 224.949219 36.097656 225.957031 C 36.097656 226.964844 36.914062 227.78125 37.921875 227.78125 L 45.371094 227.78125 L 45.371094 249.675781 C 45.371094 250.6875 46.1875 251.503906 47.199219 251.503906 L 69.09375 251.503906 L 69.09375 258.953125 C 69.09375 259.960938 69.910156 260.777344 70.917969 260.777344 C 71.929688 260.777344 72.746094 259.960938 72.746094 258.953125 L 72.746094 251.503906 L 98.265625 251.503906 L 98.265625 258.953125 C 98.265625 259.960938 99.082031 260.777344 100.09375 260.777344 C 101.101562 260.777344 101.917969 259.960938 101.917969 258.953125 L 101.917969 251.503906 L 127.433594 251.503906 L 127.433594 258.953125 C 127.433594 259.960938 128.25 260.777344 129.257812 260.777344 C 130.269531 260.777344 131.085938 259.960938 131.085938 258.953125 L 131.085938 251.503906 L 156.601562 251.503906 L 156.601562 258.953125 C 156.601562 259.960938 157.417969 260.777344 158.425781 260.777344 C 159.4375 260.777344 160.253906 259.960938 160.253906 258.953125 L 160.253906 251.503906 L 185.769531 251.503906 L 185.769531 258.953125 C 185.769531 259.960938 186.585938 260.777344 187.59375 260.777344 C 188.601562 260.777344 189.421875 259.960938 189.421875 258.953125 L 189.421875 251.503906 L 214.941406 251.503906 L 214.941406 258.953125 C 214.941406 259.960938 215.757812 260.777344 216.765625 260.777344 C 217.773438 260.777344 218.59375 259.960938 218.59375 258.953125 L 218.59375 251.503906 L 244.109375 251.503906 L 244.109375 258.953125 C 244.109375 259.960938 244.925781 260.777344 245.933594 260.777344 C 246.941406 260.777344 247.761719 259.960938 247.761719 258.953125 L 247.761719 251.503906 L 264.324219 251.503906 C 265.332031 251.503906 266.152344 250.6875 266.152344 249.675781 C 266.152344 248.667969 265.332031 247.851562 264.324219 247.851562 Z M 264.324219 247.851562 " fill-opacity="1" fill-rule="nonzero"/></g></svg>