<svg xmlns="http://www.w3.org/2000/svg" xmlns:xlink="http://www.w3.org/1999/xlink" width="1023" zoomAndPan="magnify" viewBox="0 0 767.25 275.999989" height="368" preserveAspectRatio="xMidYMid meet" version="1.0"><defs><filter x="0%" y="0%" width="100%" height="100%" id="fda15d6e72"><feColorMatrix values="0 0 0 0 1 0 0 0 0 1 0 0 0 0 1 0 0 0 1 0" color-interpolation-filters="sRGB"/></filter><clipPath id="4af27f3e88"><path d="M 0 0.132812 L 765.917969 0.132812 L 765.917969 275.863281 L 0 275.863281 Z M 0 0.132812 " clip-rule="nonzero"/></clipPath><clipPath id="c3f69b69c6"><path d="M 22.476562 0.132812 L 743.441406 0.132812 C 749.402344 0.132812 755.117188 2.503906 759.335938 6.71875 C 763.550781 10.933594 765.917969 16.652344 765.917969 22.613281 L 765.917969 253.386719 C 765.917969 259.347656 763.550781 265.066406 759.335938 269.28125 C 755.117188 273.496094 749.402344 275.863281 743.441406 275.863281 L 22.476562 275.863281 C 16.515625 275.863281 10.800781 273.496094 6.582031 269.28125 C 2.367188 265.066406 0 259.347656 0 253.386719 L 0 22.613281 C 0 16.652344 2.367188 10.933594 6.582031 6.71875 C 10.800781 2.503906 16.515625 0.132812 22.476562 0.132812 " clip-rule="nonzero"/></clipPath><clipPath id="72d68efdc6"><path d="M 61.273438 64.472656 L 206.320312 64.472656 L 206.320312 211.433594 L 61.273438 211.433594 Z M 61.273438 64.472656 " clip-rule="nonzero"/></clipPath><clipPath id="a22d979764"><path d="M 321.6875 64.472656 L 466.730469 64.472656 L 466.730469 211.433594 L 321.6875 211.433594 Z M 321.6875 64.472656 " clip-rule="nonzero"/></clipPath><clipPath id="185120bce3"><path d="M 581.992188 72.132812 L 727.039062 72.132812 L 727.039062 219.089844 L 581.992188 219.089844 Z M 581.992188 72.132812 " clip-rule="nonzero"/></clipPath><clipPath id="6c2343d702"><path d="M 483 129 L 565.988281 129 L 565.988281 178 L 483 178 Z M 483 129 " clip-rule="nonzero"/></clipPath><mask id="6cdc0b8533"><g filter="url(#fda15d6e72)"><rect x="-76.725" width="920.7" fill="#000000" y="-27.599999" height="331.199987" fill-opacity="0.2941"/></g></mask><clipPath id="9b89921826"><path d="M 0.605469 1 L 82 1 L 82 19 L 0.605469 19 Z M 0.605469 1 " clip-rule="nonzero"/></clipPath><clipPath id="9468a20f72"><path d="M 2 31 L 82.988281 31 L 82.988281 48.800781 L 2 48.800781 Z M 2 31 " clip-rule="nonzero"/></clipPath><clipPath id="7c092e7920"><rect x="0" width="83" y="0" height="49"/></clipPath><clipPath id="df8f9525c4"><path d="M 483 128.542969 L 564 128.542969 L 564 146 L 483 146 Z M 483 128.542969 " clip-rule="nonzero"/></clipPath><clipPath id="c1116c2bca"><path d="M 484 159 L 565.988281 159 L 565.988281 177 L 484 177 Z M 484 159 " clip-rule="nonzero"/></clipPath><clipPath id="15aa26a45c"><path d="M 232 122 L 296.078125 122 L 296.078125 185.644531 L 232 185.644531 Z M 232 122 " clip-rule="nonzero"/></clipPath><mask id="b8b632f968"><g filter="url(#fda15d6e72)"><rect x="-76.725" width="920.7" fill="#000000" y="-27.599999" height="331.199987" fill-opacity="0.2941"/></g></mask><clipPath id="4b2b75d336"><path d="M 26 0.175781 L 40 0.175781 L 40 63.472656 L 26 63.472656 Z M 26 0.175781 " clip-rule="nonzero"/></clipPath><clipPath id="9047a08e6c"><rect x="0" width="65" y="0" height="64"/></clipPath><clipPath id="8d703a9dec"><path d="M 257 121.496094 L 271 121.496094 L 271 185 L 257 185 Z M 257 121.496094 " clip-rule="nonzero"/></clipPath></defs><g clip-path="url(#4af27f3e88)"><g clip-path="url(#c3f69b69c6)"><path fill="#347eab" d="M 0 0.132812 L 765.917969 0.132812 L 765.917969 275.863281 L 0 275.863281 Z M 0 0.132812 " fill-opacity="1" fill-rule="nonzero"/></g></g><g clip-path="url(#72d68efdc6)"><path fill="#ffffff" d="M 133.785156 101.1875 L 133.785156 101.21875 L 160.925781 112.386719 L 133.785156 122.550781 L 61.269531 95.398438 L 126.347656 64.523438 L 206.300781 95.398438 L 179.046875 105.601562 L 151.910156 93.460938 L 151.910156 93.492188 Z M 129.261719 129.914062 L 129.261719 211.382812 L 61.269531 185.917969 L 61.269531 104.441406 Z M 97.539062 176.566406 L 79.40625 169.78125 L 79.40625 179.433594 L 97.539062 186.230469 Z M 206.308594 104.453125 L 206.308594 185.917969 L 138.328125 211.382812 L 138.328125 129.914062 L 160.988281 121.429688 L 160.988281 144.109375 L 179.121094 137.3125 L 179.121094 114.636719 Z M 206.308594 104.453125 " fill-opacity="1" fill-rule="evenodd"/></g><g clip-path="url(#a22d979764)"><path fill="#000000" d="M 394.199219 101.1875 L 394.199219 101.21875 L 421.335938 112.386719 L 394.199219 122.550781 L 321.683594 95.398438 L 386.757812 64.523438 L 466.710938 95.398438 L 439.460938 105.601562 L 412.320312 93.460938 L 412.320312 93.492188 Z M 389.675781 129.914062 L 389.675781 211.382812 L 321.683594 185.917969 L 321.683594 104.441406 Z M 357.949219 176.566406 L 339.816406 169.78125 L 339.816406 179.433594 L 357.949219 186.230469 Z M 466.722656 104.453125 L 466.722656 185.917969 L 398.742188 211.382812 L 398.742188 129.914062 L 421.398438 121.429688 L 421.398438 144.109375 L 439.53125 137.3125 L 439.53125 114.636719 Z M 466.722656 104.453125 " fill-opacity="1" fill-rule="evenodd"/></g><g clip-path="url(#185120bce3)"><path fill="#c2c2c2" d="M 654.503906 108.847656 L 654.503906 108.878906 L 681.644531 120.046875 L 654.503906 130.210938 L 581.988281 103.054688 L 647.066406 72.183594 L 727.019531 103.054688 L 699.765625 113.261719 L 672.628906 101.117188 L 672.628906 101.148438 Z M 649.980469 137.574219 L 649.980469 219.042969 L 581.988281 193.578125 L 581.988281 112.101562 Z M 618.257812 184.222656 L 600.125 177.4375 L 600.125 187.09375 L 618.257812 193.890625 Z M 727.03125 112.109375 L 727.03125 193.578125 L 659.046875 219.042969 L 659.046875 137.574219 L 681.707031 129.089844 L 681.707031 151.765625 L 699.839844 144.972656 L 699.839844 122.292969 Z M 727.03125 112.109375 " fill-opacity="1" fill-rule="evenodd"/></g><g clip-path="url(#6c2343d702)"><g mask="url(#6cdc0b8533)"><g transform="matrix(1, 0, 0, 1, 483, 129)"><g clip-path="url(#7c092e7920)"><g clip-path="url(#9b89921826)"><path fill="#000000" d="M 7.433594 2.609375 C 8.136719 2.5 8.832031 2.445312 9.519531 2.453125 C 9.550781 2.453125 9.582031 2.453125 9.613281 2.453125 C 11.027344 2.488281 12.28125 2.496094 13.378906 2.484375 C 15.742188 2.453125 18.394531 2.398438 21.332031 2.328125 L 21.292969 2.328125 C 21.296875 2.328125 21.296875 2.328125 21.300781 2.328125 L 21.296875 2.328125 C 29.59375 2.074219 38.949219 1.777344 49.367188 1.429688 L 49.40625 1.425781 L 49.410156 1.425781 L 49.390625 1.425781 C 52.074219 1.34375 54.585938 1.28125 56.925781 1.234375 C 64.699219 1.082031 70.304688 1.078125 73.746094 1.214844 C 78.058594 1.390625 81.410156 5.011719 81.234375 9.308594 C 81.0625 13.601562 77.425781 16.941406 73.113281 16.769531 C 69.984375 16.640625 64.691406 16.652344 57.234375 16.796875 C 54.953125 16.84375 52.5 16.90625 49.871094 16.984375 L 49.851562 16.984375 L 49.890625 16.984375 C 39.453125 17.332031 30.082031 17.632812 21.773438 17.886719 L 21.769531 17.886719 C 21.765625 17.886719 21.761719 17.886719 21.761719 17.886719 C 21.753906 17.886719 21.738281 17.886719 21.726562 17.886719 C 18.726562 17.960938 16.007812 18.015625 13.582031 18.046875 L 13.578125 18.046875 C 12.292969 18.0625 10.851562 18.054688 9.25 18.015625 L 9.347656 18.019531 C 9.550781 18.019531 9.742188 18.007812 9.917969 17.980469 C 5.660156 18.660156 1.648438 15.777344 0.964844 11.53125 C 0.277344 7.289062 3.175781 3.292969 7.433594 2.609375 Z M 7.433594 2.609375 " fill-opacity="1" fill-rule="nonzero"/></g><g clip-path="url(#9468a20f72)"><path fill="#000000" d="M 9.015625 33.242188 L 9.070312 33.234375 L 9.015625 33.242188 C 9.71875 33.128906 10.414062 33.078125 11.101562 33.085938 C 11.132812 33.085938 11.164062 33.085938 11.195312 33.085938 C 12.609375 33.121094 13.863281 33.128906 14.960938 33.117188 L 14.941406 33.117188 L 14.960938 33.117188 C 17.324219 33.085938 19.976562 33.03125 22.910156 32.957031 L 22.871094 32.960938 C 31.167969 32.707031 40.527344 32.40625 50.949219 32.058594 L 50.972656 32.058594 C 53.65625 31.976562 56.167969 31.914062 58.507812 31.867188 C 66.28125 31.714844 71.886719 31.710938 75.328125 31.847656 C 79.636719 32.023438 82.992188 35.644531 82.816406 39.9375 C 82.644531 44.234375 79.007812 47.574219 74.695312 47.402344 C 71.566406 47.273438 66.273438 47.285156 58.8125 47.429688 L 58.816406 47.429688 C 56.53125 47.476562 54.078125 47.539062 51.449219 47.617188 L 51.472656 47.617188 C 41.035156 47.964844 31.660156 48.265625 23.347656 48.519531 C 23.335938 48.519531 23.320312 48.519531 23.308594 48.519531 C 20.308594 48.59375 17.59375 48.648438 15.164062 48.679688 L 15.179688 48.679688 L 15.160156 48.679688 C 13.875 48.695312 12.433594 48.683594 10.832031 48.648438 L 10.925781 48.648438 C 11.132812 48.652344 11.324219 48.640625 11.5 48.609375 L 11.445312 48.617188 C 7.242188 49.292969 3.230469 46.40625 2.542969 42.164062 C 1.859375 37.921875 4.757812 33.925781 9.015625 33.242188 Z M 9.015625 33.242188 " fill-opacity="1" fill-rule="nonzero"/></g></g></g></g></g><g clip-path="url(#df8f9525c4)"><path fill="#ea8c2f" d="M 489.855469 130.203125 C 490.558594 130.089844 491.253906 130.039062 491.9375 130.046875 C 491.96875 130.046875 492.003906 130.046875 492.035156 130.046875 C 493.449219 130.078125 494.703125 130.089844 495.800781 130.074219 L 495.796875 130.074219 C 498.164062 130.046875 500.8125 129.992188 503.75 129.917969 L 503.710938 129.917969 C 512.007812 129.667969 521.367188 129.367188 531.789062 129.019531 L 531.808594 129.019531 C 534.496094 128.9375 537.007812 128.875 539.34375 128.828125 L 539.347656 128.828125 C 547.117188 128.675781 552.726562 128.667969 556.164062 128.808594 C 560.476562 128.980469 563.832031 132.605469 563.65625 136.898438 C 563.480469 141.195312 559.84375 144.535156 555.535156 144.359375 C 552.40625 144.234375 547.113281 144.246094 539.652344 144.390625 C 537.371094 144.433594 534.917969 144.496094 532.289062 144.578125 L 532.308594 144.578125 C 521.871094 144.925781 512.496094 145.226562 504.1875 145.476562 C 504.171875 145.476562 504.160156 145.480469 504.144531 145.480469 C 501.144531 145.554688 498.429688 145.609375 496 145.640625 C 494.714844 145.65625 493.269531 145.644531 491.667969 145.609375 L 491.765625 145.609375 C 491.972656 145.613281 492.160156 145.597656 492.339844 145.570312 C 488.078125 146.253906 484.070312 143.367188 483.382812 139.125 C 482.695312 134.882812 485.59375 130.886719 489.855469 130.203125 Z M 489.855469 130.203125 " fill-opacity="1" fill-rule="nonzero"/></g><g clip-path="url(#c1116c2bca)"><path fill="#ea8c2f" d="M 491.4375 160.835938 C 492.140625 160.722656 492.835938 160.671875 493.519531 160.675781 C 493.550781 160.679688 493.585938 160.679688 493.617188 160.679688 L 493.65625 160.679688 L 493.617188 160.679688 C 495.03125 160.710938 496.285156 160.722656 497.378906 160.707031 L 497.359375 160.707031 C 497.363281 160.707031 497.363281 160.707031 497.363281 160.707031 L 497.378906 160.707031 C 499.746094 160.675781 502.394531 160.625 505.332031 160.550781 L 505.292969 160.550781 C 513.585938 160.300781 522.945312 160 533.371094 159.652344 L 533.390625 159.652344 C 536.074219 159.570312 538.585938 159.507812 540.925781 159.460938 C 548.699219 159.308594 554.308594 159.300781 557.746094 159.441406 C 562.058594 159.613281 565.410156 163.238281 565.238281 167.53125 C 565.0625 171.824219 561.425781 175.167969 557.117188 174.992188 C 553.988281 174.867188 548.695312 174.875 541.234375 175.023438 C 538.953125 175.066406 536.496094 175.128906 533.871094 175.210938 L 533.890625 175.210938 C 523.457031 175.558594 514.082031 175.859375 505.765625 176.109375 C 505.753906 176.109375 505.742188 176.109375 505.726562 176.109375 C 502.726562 176.1875 500.011719 176.242188 497.582031 176.273438 L 497.601562 176.269531 C 497.601562 176.273438 497.601562 176.273438 497.601562 176.273438 L 497.582031 176.273438 C 496.296875 176.289062 494.851562 176.277344 493.253906 176.242188 L 493.210938 176.238281 L 493.347656 176.242188 C 493.550781 176.246094 493.742188 176.230469 493.917969 176.203125 C 489.660156 176.886719 485.652344 174 484.964844 169.757812 C 484.277344 165.511719 487.175781 161.519531 491.4375 160.835938 Z M 491.4375 160.835938 " fill-opacity="1" fill-rule="nonzero"/></g><g clip-path="url(#15aa26a45c)"><g mask="url(#b8b632f968)"><g transform="matrix(1, 0, 0, 1, 232, 122)"><g clip-path="url(#9047a08e6c)"><g clip-path="url(#4b2b75d336)"><path fill="#000000" d="M 27.4375 58.046875 C 27.347656 57.5 27.308594 56.957031 27.3125 56.417969 C 27.3125 56.394531 27.3125 56.367188 27.3125 56.34375 C 27.339844 55.238281 27.34375 54.257812 27.332031 53.402344 C 27.304688 51.554688 27.261719 49.480469 27.203125 47.1875 L 27.203125 47.21875 C 26.996094 40.734375 26.753906 33.417969 26.472656 25.269531 L 26.472656 25.253906 C 26.40625 23.15625 26.351562 21.191406 26.3125 19.363281 C 26.1875 13.285156 26.179688 8.902344 26.285156 6.214844 C 26.417969 2.84375 29.253906 0.21875 32.625 0.351562 C 35.996094 0.484375 38.621094 3.324219 38.488281 6.695312 C 38.390625 9.140625 38.402344 13.277344 38.523438 19.109375 C 38.5625 20.890625 38.613281 22.8125 38.679688 24.863281 L 38.679688 24.847656 C 38.960938 33.007812 39.207031 40.332031 39.410156 46.832031 C 39.410156 46.839844 39.410156 46.851562 39.410156 46.863281 C 39.472656 49.207031 39.519531 51.332031 39.546875 53.230469 C 39.558594 54.234375 39.550781 55.363281 39.523438 56.613281 L 39.527344 56.539062 C 39.527344 56.378906 39.515625 56.230469 39.496094 56.09375 C 40.035156 59.421875 37.773438 62.558594 34.445312 63.097656 C 31.117188 63.636719 27.980469 61.378906 27.4375 58.046875 Z M 27.4375 58.046875 " fill-opacity="1" fill-rule="nonzero"/></g><path fill="#000000" d="M 6.210938 25.136719 C 6.761719 25.046875 7.304688 25.003906 7.839844 25.007812 C 7.867188 25.007812 7.890625 25.011719 7.914062 25.011719 C 9.019531 25.035156 10 25.042969 10.859375 25.03125 L 10.855469 25.03125 C 12.707031 25.003906 14.777344 24.960938 17.074219 24.898438 L 17.042969 24.898438 C 23.527344 24.695312 30.84375 24.453125 38.988281 24.167969 L 39.003906 24.167969 C 41.105469 24.101562 43.066406 24.050781 44.894531 24.011719 C 50.972656 23.886719 55.355469 23.875 58.042969 23.980469 C 61.414062 24.113281 64.039062 26.953125 63.90625 30.324219 C 63.773438 33.691406 60.933594 36.316406 57.5625 36.183594 C 55.121094 36.089844 50.980469 36.101562 45.148438 36.222656 L 45.152344 36.222656 C 43.367188 36.257812 41.449219 36.3125 39.394531 36.375 L 39.410156 36.375 C 31.253906 36.65625 23.925781 36.902344 17.425781 37.109375 C 17.417969 37.109375 17.40625 37.109375 17.394531 37.109375 C 15.050781 37.171875 12.929688 37.214844 11.027344 37.242188 C 10.023438 37.253906 8.894531 37.25 7.644531 37.222656 L 7.71875 37.222656 C 7.878906 37.222656 8.027344 37.214844 8.167969 37.191406 C 4.835938 37.730469 1.699219 35.46875 1.160156 32.140625 C 0.621094 28.8125 2.882812 25.675781 6.210938 25.136719 Z M 6.210938 25.136719 " fill-opacity="1" fill-rule="nonzero"/></g></g></g></g><g clip-path="url(#8d703a9dec)"><path fill="#ea8c2f" d="M 258.785156 179.324219 C 258.695312 178.773438 258.65625 178.230469 258.660156 177.691406 C 258.660156 177.667969 258.660156 177.644531 258.660156 177.617188 C 258.6875 176.511719 258.691406 175.53125 258.679688 174.675781 C 258.652344 172.828125 258.609375 170.753906 258.550781 168.460938 L 258.550781 168.492188 C 258.34375 162.007812 258.101562 154.691406 257.820312 146.542969 L 257.820312 146.527344 C 257.753906 144.429688 257.699219 142.464844 257.660156 140.636719 C 257.535156 134.5625 257.523438 130.179688 257.632812 127.488281 C 257.765625 124.121094 260.601562 121.496094 263.972656 121.628906 C 267.34375 121.761719 269.96875 124.597656 269.835938 127.96875 C 269.738281 130.414062 269.75 134.550781 269.871094 140.382812 C 269.910156 142.167969 269.960938 144.085938 270.027344 146.140625 L 270.027344 146.121094 C 270.308594 154.28125 270.550781 161.609375 270.757812 168.105469 C 270.757812 168.117188 270.757812 168.125 270.757812 168.136719 C 270.820312 170.484375 270.867188 172.605469 270.890625 174.503906 C 270.90625 175.507812 270.898438 176.636719 270.871094 177.890625 L 270.871094 177.8125 C 270.875 177.652344 270.863281 177.503906 270.839844 177.367188 C 271.382812 180.695312 269.121094 183.832031 265.792969 184.371094 C 262.460938 184.914062 259.324219 182.652344 258.785156 179.324219 Z M 258.785156 179.324219 " fill-opacity="1" fill-rule="nonzero"/></g><path fill="#ea8c2f" d="M 237.558594 146.410156 C 238.109375 146.320312 238.652344 146.277344 239.1875 146.285156 C 239.210938 146.285156 239.238281 146.285156 239.261719 146.285156 C 240.367188 146.308594 241.347656 146.316406 242.207031 146.304688 L 242.203125 146.304688 C 244.050781 146.277344 246.125 146.234375 248.421875 146.171875 L 248.386719 146.175781 C 254.875 145.96875 262.191406 145.726562 270.335938 145.445312 L 270.351562 145.441406 C 272.449219 145.375 274.414062 145.324219 276.242188 145.285156 C 282.320312 145.160156 286.703125 145.148438 289.390625 145.253906 C 292.761719 145.386719 295.386719 148.226562 295.253906 151.597656 C 295.121094 154.96875 292.28125 157.589844 288.910156 157.457031 C 286.464844 157.363281 282.328125 157.375 276.496094 157.496094 C 274.714844 157.535156 272.796875 157.585938 270.742188 157.652344 L 270.757812 157.648438 C 262.601562 157.933594 255.273438 158.175781 248.773438 158.382812 C 248.765625 158.382812 248.753906 158.382812 248.742188 158.382812 C 246.398438 158.445312 244.277344 158.488281 242.375 158.515625 C 241.371094 158.53125 240.242188 158.523438 238.992188 158.496094 L 239.066406 158.496094 C 239.226562 158.5 239.375 158.488281 239.515625 158.464844 C 236.183594 159.003906 233.046875 156.746094 232.507812 153.414062 C 231.96875 150.085938 234.230469 146.949219 237.558594 146.410156 Z M 237.558594 146.410156 " fill-opacity="1" fill-rule="nonzero"/></svg>