<svg xmlns="http://www.w3.org/2000/svg" xmlns:xlink="http://www.w3.org/1999/xlink" width="272" zoomAndPan="magnify" viewBox="0 0 204 167.999997" height="224" preserveAspectRatio="xMidYMid meet" version="1.0"><defs><filter x="0%" y="0%" width="100%" height="100%" id="1768a9cec6"><feColorMatrix values="0 0 0 0 1 0 0 0 0 1 0 0 0 0 1 0 0 0 1 0" color-interpolation-filters="sRGB"/></filter><mask id="f2d89e9a92"><g filter="url(#1768a9cec6)"><rect x="-20.4" width="244.8" fill="#000000" y="-16.8" height="201.599996" fill-opacity="0.2"/></g></mask><clipPath id="d382352ffc"><path d="M 0 0 L 204 0 L 204 168 L 0 168 Z M 0 0 " clip-rule="nonzero"/></clipPath><clipPath id="2e7bb9a18a"><path d="M 22.5 0 L 181.5 0 C 193.925781 0 204 10.074219 204 22.5 L 204 145.5 C 204 157.925781 193.925781 168 181.5 168 L 22.5 168 C 10.074219 168 0 157.925781 0 145.5 L 0 22.5 C 0 10.074219 10.074219 0 22.5 0 " clip-rule="nonzero"/></clipPath><clipPath id="b1af04a110"><rect x="0" width="204" y="0" height="168"/></clipPath><clipPath id="f4da5e90b8"><path d="M 32 141 L 41 141 L 41 149.855469 L 32 149.855469 Z M 32 141 " clip-rule="nonzero"/></clipPath><clipPath id="0ef4de1374"><path d="M 133 144 L 137 144 L 137 149.855469 L 133 149.855469 Z M 133 144 " clip-rule="nonzero"/></clipPath><clipPath id="7f49f05395"><path d="M 144 144 L 148 144 L 148 149.855469 L 144 149.855469 Z M 144 144 " clip-rule="nonzero"/></clipPath><clipPath id="31db50184e"><path d="M 170 143 L 172.632812 143 L 172.632812 149 L 170 149 Z M 170 143 " clip-rule="nonzero"/></clipPath><clipPath id="d3d1d32e21"><path d="M 32 105 L 172.632812 105 L 172.632812 133 L 32 133 Z M 32 105 " clip-rule="nonzero"/></clipPath><clipPath id="80089429b1"><path d="M 31.632812 17.855469 L 172.632812 17.855469 L 172.632812 50 L 31.632812 50 Z M 31.632812 17.855469 " clip-rule="nonzero"/></clipPath><clipPath id="e018b6c8bd"><path d="M 31.632812 62 L 172.632812 62 L 172.632812 95 L 31.632812 95 Z M 31.632812 62 " clip-rule="nonzero"/></clipPath></defs><rect x="-20.4" width="244.8" fill="#ffffff" y="-16.8" height="201.599996" fill-opacity="1"/><rect x="-20.4" width="244.8" fill="#ffffff" y="-16.8" height="201.599996" fill-opacity="1"/><g mask="url(#f2d89e9a92)"><g><g clip-path="url(#b1af04a110)"><g clip-path="url(#d382352ffc)"><g clip-path="url(#2e7bb9a18a)"><rect x="-44.88" width="293.76" fill="#ffffff" height="241.919996" y="-36.959999" fill-opacity="1"/></g></g></g></g></g><g clip-path="url(#f4da5e90b8)"><path fill="#1f435c" d="M 40.003906 145.886719 C 40.003906 148.078125 38.21875 149.855469 36.019531 149.855469 C 33.820312 149.855469 32.039062 148.078125 32.039062 145.886719 C 32.039062 143.695312 33.820312 141.921875 36.019531 141.921875 C 38.21875 141.921875 40.003906 143.695312 40.003906 145.886719 Z M 40.003906 145.886719 " fill-opacity="1" fill-rule="nonzero"/></g><path fill="#ffffff" d="M 38.605469 145.886719 C 38.605469 147.308594 37.449219 148.460938 36.019531 148.460938 C 34.59375 148.460938 33.4375 147.308594 33.4375 145.886719 C 33.4375 144.464844 34.59375 143.3125 36.019531 143.3125 C 37.449219 143.3125 38.605469 144.464844 38.605469 145.886719 Z M 38.605469 145.886719 " fill-opacity="1" fill-rule="nonzero"/><path fill="#4d4d4d" d="M 42.957031 143.6875 C 43.246094 143.628906 43.660156 143.597656 44.054688 143.597656 C 44.664062 143.597656 45.058594 143.707031 45.335938 143.957031 C 45.558594 144.152344 45.683594 144.453125 45.683594 144.792969 C 45.683594 145.375 45.316406 145.761719 44.847656 145.917969 L 44.847656 145.9375 C 45.191406 146.054688 45.394531 146.371094 45.5 146.828125 C 45.644531 147.441406 45.75 147.867188 45.839844 148.039062 L 45.25 148.039062 C 45.175781 147.914062 45.078125 147.535156 44.953125 146.984375 C 44.824219 146.375 44.585938 146.148438 44.066406 146.128906 L 43.53125 146.128906 L 43.53125 148.039062 L 42.957031 148.039062 Z M 43.53125 145.695312 L 44.113281 145.695312 C 44.722656 145.695312 45.113281 145.363281 45.113281 144.859375 C 45.113281 144.289062 44.699219 144.042969 44.09375 144.035156 C 43.820312 144.035156 43.621094 144.0625 43.53125 144.085938 Z M 43.53125 145.695312 " fill-opacity="1" fill-rule="nonzero"/><path fill="#4d4d4d" d="M 46.820312 146.558594 C 46.832031 147.335938 47.332031 147.65625 47.910156 147.65625 C 48.324219 147.65625 48.574219 147.585938 48.789062 147.496094 L 48.886719 147.90625 C 48.683594 148 48.335938 148.101562 47.832031 148.101562 C 46.851562 148.101562 46.269531 147.460938 46.269531 146.507812 C 46.269531 145.550781 46.832031 144.800781 47.757812 144.800781 C 48.796875 144.800781 49.070312 145.710938 49.070312 146.292969 C 49.070312 146.410156 49.058594 146.5 49.050781 146.558594 Z M 48.511719 146.148438 C 48.519531 145.78125 48.363281 145.210938 47.710938 145.210938 C 47.128906 145.210938 46.871094 145.75 46.828125 146.148438 Z M 48.511719 146.148438 " fill-opacity="1" fill-rule="nonzero"/><path fill="#4d4d4d" d="M 49.789062 145.730469 C 49.789062 145.402344 49.78125 145.132812 49.761719 144.871094 L 50.265625 144.871094 L 50.292969 145.382812 L 50.3125 145.382812 C 50.492188 145.082031 50.785156 144.800781 51.3125 144.800781 C 51.746094 144.800781 52.074219 145.0625 52.210938 145.433594 L 52.222656 145.433594 C 52.324219 145.257812 52.445312 145.121094 52.578125 145.023438 C 52.769531 144.878906 52.980469 144.800781 53.28125 144.800781 C 53.703125 144.800781 54.324219 145.074219 54.324219 146.171875 L 54.324219 148.039062 L 53.761719 148.039062 L 53.761719 146.246094 C 53.761719 145.636719 53.539062 145.269531 53.070312 145.269531 C 52.742188 145.269531 52.488281 145.511719 52.386719 145.792969 C 52.363281 145.871094 52.34375 145.976562 52.34375 146.082031 L 52.34375 148.039062 L 51.777344 148.039062 L 51.777344 146.140625 C 51.777344 145.636719 51.554688 145.269531 51.113281 145.269531 C 50.753906 145.269531 50.492188 145.558594 50.398438 145.847656 C 50.367188 145.933594 50.351562 146.03125 50.351562 146.128906 L 50.351562 148.039062 L 49.789062 148.039062 Z M 49.789062 145.730469 " fill-opacity="1" fill-rule="nonzero"/><path fill="#4d4d4d" d="M 55.585938 146.558594 C 55.597656 147.335938 56.097656 147.65625 56.675781 147.65625 C 57.089844 147.65625 57.339844 147.585938 57.554688 147.496094 L 57.65625 147.90625 C 57.449219 148 57.101562 148.101562 56.597656 148.101562 C 55.617188 148.101562 55.035156 147.460938 55.035156 146.507812 C 55.035156 145.550781 55.597656 144.800781 56.523438 144.800781 C 57.5625 144.800781 57.839844 145.710938 57.839844 146.292969 C 57.839844 146.410156 57.824219 146.5 57.820312 146.558594 Z M 57.28125 146.148438 C 57.285156 145.78125 57.128906 145.210938 56.480469 145.210938 C 55.894531 145.210938 55.640625 145.75 55.59375 146.148438 Z M 57.28125 146.148438 " fill-opacity="1" fill-rule="nonzero"/><path fill="#4d4d4d" d="M 58.554688 145.730469 C 58.554688 145.402344 58.546875 145.132812 58.527344 144.871094 L 59.035156 144.871094 L 59.058594 145.382812 L 59.078125 145.382812 C 59.257812 145.082031 59.550781 144.800781 60.078125 144.800781 C 60.511719 144.800781 60.839844 145.0625 60.976562 145.433594 L 60.992188 145.433594 C 61.089844 145.257812 61.214844 145.121094 61.34375 145.023438 C 61.535156 144.878906 61.746094 144.800781 62.046875 144.800781 C 62.46875 144.800781 63.089844 145.074219 63.089844 146.171875 L 63.089844 148.039062 L 62.527344 148.039062 L 62.527344 146.246094 C 62.527344 145.636719 62.304688 145.269531 61.835938 145.269531 C 61.507812 145.269531 61.253906 145.511719 61.15625 145.792969 C 61.128906 145.871094 61.109375 145.976562 61.109375 146.082031 L 61.109375 148.039062 L 60.542969 148.039062 L 60.542969 146.140625 C 60.542969 145.636719 60.320312 145.269531 59.878906 145.269531 C 59.519531 145.269531 59.257812 145.558594 59.164062 145.847656 C 59.132812 145.933594 59.117188 146.03125 59.117188 146.128906 L 59.117188 148.039062 L 58.554688 148.039062 Z M 58.554688 145.730469 " fill-opacity="1" fill-rule="nonzero"/><path fill="#4d4d4d" d="M 64.003906 148.039062 C 64.019531 147.820312 64.03125 147.5 64.03125 147.21875 L 64.03125 143.394531 L 64.601562 143.394531 L 64.601562 145.382812 L 64.617188 145.382812 C 64.820312 145.027344 65.1875 144.800781 65.699219 144.800781 C 66.488281 144.800781 67.046875 145.453125 67.039062 146.414062 C 67.039062 147.546875 66.324219 148.109375 65.613281 148.109375 C 65.152344 148.109375 64.785156 147.933594 64.550781 147.515625 L 64.53125 147.515625 L 64.503906 148.035156 L 64.003906 148.035156 Z M 64.601562 146.769531 C 64.601562 146.839844 64.617188 146.914062 64.628906 146.976562 C 64.742188 147.375 65.074219 147.652344 65.496094 147.652344 C 66.101562 147.652344 66.460938 147.160156 66.460938 146.433594 C 66.460938 145.800781 66.132812 145.257812 65.515625 145.257812 C 65.121094 145.257812 64.753906 145.527344 64.636719 145.964844 C 64.621094 146.03125 64.601562 146.109375 64.601562 146.199219 Z M 64.601562 146.769531 " fill-opacity="1" fill-rule="nonzero"/><path fill="#4d4d4d" d="M 68.089844 146.558594 C 68.101562 147.335938 68.601562 147.65625 69.179688 147.65625 C 69.59375 147.65625 69.84375 147.585938 70.058594 147.496094 L 70.15625 147.90625 C 69.953125 148 69.605469 148.101562 69.101562 148.101562 C 68.121094 148.101562 67.539062 147.460938 67.539062 146.507812 C 67.539062 145.550781 68.101562 144.800781 69.027344 144.800781 C 70.066406 144.800781 70.339844 145.710938 70.339844 146.292969 C 70.339844 146.410156 70.328125 146.5 70.320312 146.558594 Z M 69.785156 146.148438 C 69.789062 145.78125 69.632812 145.210938 68.984375 145.210938 C 68.398438 145.210938 68.140625 145.75 68.097656 146.148438 Z M 69.785156 146.148438 " fill-opacity="1" fill-rule="nonzero"/><path fill="#4d4d4d" d="M 71.058594 145.859375 C 71.058594 145.488281 71.050781 145.167969 71.03125 144.871094 L 71.539062 144.871094 L 71.558594 145.492188 L 71.582031 145.492188 C 71.726562 145.070312 72.074219 144.800781 72.464844 144.800781 C 72.527344 144.800781 72.574219 144.808594 72.628906 144.820312 L 72.628906 145.363281 C 72.566406 145.351562 72.507812 145.34375 72.429688 145.34375 C 72.023438 145.34375 71.734375 145.652344 71.65625 146.082031 C 71.640625 146.160156 71.628906 146.253906 71.628906 146.351562 L 71.628906 148.039062 L 71.058594 148.039062 Z M 71.058594 145.859375 " fill-opacity="1" fill-rule="nonzero"/><path fill="#4d4d4d" d="M 74.597656 145.730469 C 74.597656 145.402344 74.589844 145.132812 74.570312 144.871094 L 75.078125 144.871094 L 75.101562 145.382812 L 75.121094 145.382812 C 75.300781 145.082031 75.59375 144.800781 76.121094 144.800781 C 76.554688 144.800781 76.882812 145.0625 77.019531 145.433594 L 77.035156 145.433594 C 77.132812 145.257812 77.257812 145.121094 77.386719 145.023438 C 77.578125 144.878906 77.789062 144.800781 78.089844 144.800781 C 78.511719 144.800781 79.132812 145.074219 79.132812 146.171875 L 79.132812 148.039062 L 78.570312 148.039062 L 78.570312 146.246094 C 78.570312 145.636719 78.347656 145.269531 77.878906 145.269531 C 77.550781 145.269531 77.296875 145.511719 77.199219 145.792969 C 77.171875 145.871094 77.152344 145.976562 77.152344 146.082031 L 77.152344 148.039062 L 76.585938 148.039062 L 76.585938 146.140625 C 76.585938 145.636719 76.363281 145.269531 75.925781 145.269531 C 75.5625 145.269531 75.300781 145.558594 75.207031 145.847656 C 75.175781 145.933594 75.160156 146.03125 75.160156 146.128906 L 75.160156 148.039062 L 74.597656 148.039062 Z M 74.597656 145.730469 " fill-opacity="1" fill-rule="nonzero"/><path fill="#4d4d4d" d="M 80.394531 146.558594 C 80.410156 147.335938 80.90625 147.65625 81.484375 147.65625 C 81.898438 147.65625 82.148438 147.585938 82.367188 147.496094 L 82.464844 147.90625 C 82.261719 148 81.914062 148.101562 81.40625 148.101562 C 80.429688 148.101562 79.84375 147.460938 79.84375 146.507812 C 79.84375 145.550781 80.410156 144.800781 81.335938 144.800781 C 82.371094 144.800781 82.648438 145.710938 82.648438 146.292969 C 82.648438 146.410156 82.636719 146.5 82.628906 146.558594 Z M 82.089844 146.148438 C 82.097656 145.78125 81.9375 145.210938 81.289062 145.210938 C 80.703125 145.210938 80.449219 145.75 80.402344 146.148438 Z M 82.089844 146.148438 " fill-opacity="1" fill-rule="nonzero"/><path fill="#4d4d4d" d="M 124.90625 143.628906 L 127.289062 143.628906 L 127.289062 144.105469 L 125.476562 144.105469 L 125.476562 145.570312 L 127.152344 145.570312 L 127.152344 146.042969 L 125.476562 146.042969 L 125.476562 148.039062 L 124.90625 148.039062 Z M 124.90625 143.628906 " fill-opacity="1" fill-rule="nonzero"/><path fill="#4d4d4d" d="M 130.757812 146.429688 C 130.757812 147.597656 129.945312 148.109375 129.175781 148.109375 C 128.316406 148.109375 127.652344 147.480469 127.652344 146.480469 C 127.652344 145.421875 128.347656 144.800781 129.226562 144.800781 C 130.140625 144.800781 130.757812 145.460938 130.757812 146.429688 Z M 128.234375 146.460938 C 128.234375 147.15625 128.636719 147.675781 129.203125 147.675781 C 129.753906 147.675781 130.167969 147.160156 130.167969 146.449219 C 130.167969 145.910156 129.898438 145.230469 129.214844 145.230469 C 128.53125 145.230469 128.234375 145.859375 128.234375 146.460938 Z M 128.234375 146.460938 " fill-opacity="1" fill-rule="nonzero"/><path fill="#4d4d4d" d="M 131.488281 145.859375 C 131.488281 145.488281 131.480469 145.167969 131.460938 144.871094 L 131.964844 144.871094 L 131.984375 145.492188 L 132.011719 145.492188 C 132.15625 145.070312 132.503906 144.800781 132.890625 144.800781 C 132.957031 144.800781 133.003906 144.808594 133.054688 144.820312 L 133.054688 145.363281 C 132.996094 145.351562 132.9375 145.34375 132.859375 145.34375 C 132.453125 145.34375 132.164062 145.652344 132.085938 146.082031 C 132.070312 146.160156 132.058594 146.253906 132.058594 146.351562 L 132.058594 148.039062 L 131.488281 148.039062 Z M 131.488281 145.859375 " fill-opacity="1" fill-rule="nonzero"/><g clip-path="url(#0ef4de1374)"><path fill="#4d4d4d" d="M 136.320312 144.871094 C 136.304688 145.101562 136.292969 145.355469 136.292969 145.742188 L 136.292969 147.578125 C 136.292969 148.304688 136.148438 148.75 135.839844 149.023438 C 135.53125 149.3125 135.085938 149.402344 134.683594 149.402344 C 134.304688 149.402344 133.882812 149.3125 133.628906 149.140625 L 133.773438 148.703125 C 133.980469 148.835938 134.308594 148.953125 134.703125 148.953125 C 135.296875 148.953125 135.730469 148.644531 135.730469 147.847656 L 135.730469 147.496094 L 135.714844 147.496094 C 135.539062 147.789062 135.195312 148.023438 134.703125 148.023438 C 133.917969 148.023438 133.351562 147.355469 133.351562 146.480469 C 133.351562 145.410156 134.054688 144.800781 134.785156 144.800781 C 135.335938 144.800781 135.636719 145.089844 135.773438 145.347656 L 135.789062 145.347656 L 135.8125 144.871094 Z M 135.722656 146.121094 C 135.722656 146.023438 135.714844 145.9375 135.6875 145.859375 C 135.585938 145.527344 135.300781 145.25 134.882812 145.25 C 134.332031 145.25 133.9375 145.714844 133.9375 146.449219 C 133.9375 147.070312 134.25 147.585938 134.875 147.585938 C 135.230469 147.585938 135.550781 147.363281 135.675781 146.996094 C 135.710938 146.898438 135.722656 146.789062 135.722656 146.691406 Z M 135.722656 146.121094 " fill-opacity="1" fill-rule="nonzero"/></g><path fill="#4d4d4d" d="M 140.128906 146.429688 C 140.128906 147.597656 139.3125 148.109375 138.546875 148.109375 C 137.6875 148.109375 137.023438 147.480469 137.023438 146.480469 C 137.023438 145.421875 137.71875 144.800781 138.597656 144.800781 C 139.511719 144.800781 140.128906 145.460938 140.128906 146.429688 Z M 137.605469 146.460938 C 137.605469 147.15625 138.007812 147.675781 138.570312 147.675781 C 139.125 147.675781 139.539062 147.160156 139.539062 146.449219 C 139.539062 145.910156 139.269531 145.230469 138.585938 145.230469 C 137.902344 145.230469 137.605469 145.859375 137.605469 146.460938 Z M 137.605469 146.460938 " fill-opacity="1" fill-rule="nonzero"/><path fill="#4d4d4d" d="M 141.554688 143.964844 L 141.554688 144.871094 L 142.382812 144.871094 L 142.382812 145.308594 L 141.554688 145.308594 L 141.554688 147.015625 C 141.554688 147.410156 141.664062 147.632812 141.988281 147.632812 C 142.136719 147.632812 142.25 147.613281 142.320312 147.59375 L 142.347656 148.023438 C 142.238281 148.070312 142.058594 148.101562 141.835938 148.101562 C 141.566406 148.101562 141.351562 148.019531 141.210938 147.859375 C 141.046875 147.691406 140.988281 147.410156 140.988281 147.035156 L 140.988281 145.308594 L 140.496094 145.308594 L 140.496094 144.871094 L 140.988281 144.871094 L 140.988281 144.113281 Z M 141.554688 143.964844 " fill-opacity="1" fill-rule="nonzero"/><g clip-path="url(#7f49f05395)"><path fill="#4d4d4d" d="M 144.421875 145.90625 C 144.421875 145.5 144.410156 145.171875 144.398438 144.871094 L 144.917969 144.871094 L 144.941406 145.414062 L 144.957031 145.414062 C 145.191406 145.03125 145.566406 144.800781 146.085938 144.800781 C 146.851562 144.800781 147.429688 145.449219 147.429688 146.410156 C 147.429688 147.546875 146.734375 148.109375 145.984375 148.109375 C 145.566406 148.109375 145.199219 147.925781 145.007812 147.613281 L 144.996094 147.613281 L 144.996094 149.332031 L 144.421875 149.332031 Z M 144.996094 146.75 C 144.996094 146.835938 145.007812 146.914062 145.019531 146.984375 C 145.125 147.382812 145.472656 147.65625 145.886719 147.65625 C 146.5 147.65625 146.851562 147.160156 146.851562 146.433594 C 146.851562 145.800781 146.519531 145.257812 145.90625 145.257812 C 145.511719 145.257812 145.144531 145.539062 145.035156 145.972656 C 145.015625 146.042969 144.996094 146.128906 144.996094 146.207031 Z M 144.996094 146.75 " fill-opacity="1" fill-rule="nonzero"/></g><path fill="#4d4d4d" d="M 149.917969 148.039062 L 149.875 147.636719 L 149.855469 147.636719 C 149.675781 147.886719 149.335938 148.109375 148.882812 148.109375 C 148.238281 148.109375 147.910156 147.65625 147.910156 147.199219 C 147.910156 146.433594 148.59375 146.015625 149.820312 146.023438 L 149.820312 145.957031 C 149.820312 145.695312 149.75 145.226562 149.097656 145.226562 C 148.804688 145.226562 148.496094 145.316406 148.269531 145.460938 L 148.140625 145.082031 C 148.402344 144.910156 148.785156 144.800781 149.183594 144.800781 C 150.15625 144.800781 150.390625 145.460938 150.390625 146.09375 L 150.390625 147.277344 C 150.390625 147.554688 150.40625 147.820312 150.445312 148.039062 Z M 149.835938 146.421875 C 149.203125 146.410156 148.488281 146.519531 148.488281 147.136719 C 148.488281 147.507812 148.738281 147.683594 149.03125 147.683594 C 149.445312 147.683594 149.710938 147.421875 149.800781 147.15625 C 149.820312 147.09375 149.835938 147.03125 149.835938 146.972656 Z M 149.835938 146.421875 " fill-opacity="1" fill-rule="nonzero"/><path fill="#4d4d4d" d="M 151.246094 147.449219 C 151.417969 147.558594 151.71875 147.675781 152.007812 147.675781 C 152.429688 147.675781 152.625 147.46875 152.625 147.207031 C 152.625 146.933594 152.460938 146.78125 152.035156 146.625 C 151.464844 146.421875 151.195312 146.109375 151.195312 145.730469 C 151.195312 145.21875 151.609375 144.800781 152.289062 144.800781 C 152.613281 144.800781 152.894531 144.890625 153.070312 144.996094 L 152.925781 145.414062 C 152.800781 145.335938 152.574219 145.230469 152.277344 145.230469 C 151.9375 145.230469 151.746094 145.429688 151.746094 145.664062 C 151.746094 145.925781 151.9375 146.042969 152.347656 146.199219 C 152.902344 146.410156 153.183594 146.683594 153.183594 147.15625 C 153.183594 147.710938 152.75 148.101562 151.996094 148.101562 C 151.648438 148.101562 151.324219 148.019531 151.101562 147.886719 Z M 151.246094 147.449219 " fill-opacity="1" fill-rule="nonzero"/><path fill="#4d4d4d" d="M 153.847656 147.449219 C 154.015625 147.558594 154.320312 147.675781 154.609375 147.675781 C 155.027344 147.675781 155.226562 147.46875 155.226562 147.207031 C 155.226562 146.933594 155.0625 146.78125 154.632812 146.625 C 154.0625 146.421875 153.792969 146.109375 153.792969 145.730469 C 153.792969 145.21875 154.207031 144.800781 154.890625 144.800781 C 155.210938 144.800781 155.496094 144.890625 155.671875 144.996094 L 155.527344 145.414062 C 155.402344 145.335938 155.171875 145.230469 154.878906 145.230469 C 154.535156 145.230469 154.347656 145.429688 154.347656 145.664062 C 154.347656 145.925781 154.535156 146.042969 154.949219 146.199219 C 155.5 146.410156 155.785156 146.683594 155.785156 147.15625 C 155.785156 147.710938 155.351562 148.101562 154.59375 148.101562 C 154.246094 148.101562 153.925781 148.019531 153.703125 147.886719 Z M 153.847656 147.449219 " fill-opacity="1" fill-rule="nonzero"/><path fill="#4d4d4d" d="M 156.757812 144.871094 L 157.175781 146.480469 C 157.269531 146.835938 157.351562 147.160156 157.414062 147.488281 L 157.433594 147.488281 C 157.503906 147.167969 157.609375 146.828125 157.714844 146.488281 L 158.234375 144.871094 L 158.71875 144.871094 L 159.210938 146.453125 C 159.328125 146.835938 159.421875 147.167969 159.492188 147.488281 L 159.515625 147.488281 C 159.566406 147.167969 159.652344 146.835938 159.757812 146.460938 L 160.210938 144.871094 L 160.78125 144.871094 L 159.757812 148.039062 L 159.230469 148.039062 L 158.746094 146.527344 C 158.632812 146.171875 158.542969 145.859375 158.464844 145.488281 L 158.449219 145.488281 C 158.371094 145.867188 158.273438 146.191406 158.160156 146.535156 L 157.648438 148.039062 L 157.125 148.039062 L 156.164062 144.871094 Z M 156.757812 144.871094 " fill-opacity="1" fill-rule="nonzero"/><path fill="#4d4d4d" d="M 164.167969 146.429688 C 164.167969 147.597656 163.355469 148.109375 162.585938 148.109375 C 161.726562 148.109375 161.0625 147.480469 161.0625 146.480469 C 161.0625 145.421875 161.761719 144.800781 162.640625 144.800781 C 163.550781 144.800781 164.167969 145.460938 164.167969 146.429688 Z M 161.648438 146.460938 C 161.648438 147.15625 162.046875 147.675781 162.613281 147.675781 C 163.164062 147.675781 163.578125 147.160156 163.578125 146.449219 C 163.578125 145.910156 163.308594 145.230469 162.625 145.230469 C 161.945312 145.230469 161.648438 145.859375 161.648438 146.460938 Z M 161.648438 146.460938 " fill-opacity="1" fill-rule="nonzero"/><path fill="#4d4d4d" d="M 164.898438 145.859375 C 164.898438 145.488281 164.890625 145.167969 164.871094 144.871094 L 165.378906 144.871094 L 165.398438 145.492188 L 165.425781 145.492188 C 165.570312 145.070312 165.917969 144.800781 166.304688 144.800781 C 166.371094 144.800781 166.414062 144.808594 166.46875 144.820312 L 166.46875 145.363281 C 166.410156 145.351562 166.351562 145.34375 166.269531 145.34375 C 165.863281 145.34375 165.574219 145.652344 165.496094 146.082031 C 165.484375 146.160156 165.46875 146.253906 165.46875 146.351562 L 165.46875 148.039062 L 164.898438 148.039062 Z M 164.898438 145.859375 " fill-opacity="1" fill-rule="nonzero"/><path fill="#4d4d4d" d="M 169.726562 143.394531 L 169.726562 147.21875 C 169.726562 147.5 169.730469 147.820312 169.75 148.039062 L 169.234375 148.039062 L 169.207031 147.488281 L 169.191406 147.488281 C 169.015625 147.839844 168.628906 148.109375 168.109375 148.109375 C 167.339844 148.109375 166.75 147.460938 166.75 146.5 C 166.742188 145.449219 167.402344 144.800781 168.175781 144.800781 C 168.660156 144.800781 168.988281 145.027344 169.132812 145.285156 L 169.148438 145.285156 L 169.148438 143.394531 Z M 169.148438 146.160156 C 169.148438 146.089844 169.140625 145.992188 169.121094 145.917969 C 169.035156 145.550781 168.71875 145.25 168.289062 145.25 C 167.691406 145.25 167.335938 145.773438 167.335938 146.472656 C 167.335938 147.117188 167.648438 147.644531 168.273438 147.644531 C 168.660156 147.644531 169.015625 147.390625 169.121094 146.957031 C 169.140625 146.878906 169.148438 146.800781 169.148438 146.710938 Z M 169.148438 146.160156 " fill-opacity="1" fill-rule="nonzero"/><g clip-path="url(#31db50184e)"><path fill="#4d4d4d" d="M 171.128906 146.789062 L 171.117188 146.617188 C 171.078125 146.265625 171.195312 145.878906 171.523438 145.488281 C 171.820312 145.140625 171.984375 144.886719 171.984375 144.589844 C 171.984375 144.257812 171.773438 144.035156 171.359375 144.027344 C 171.125 144.027344 170.863281 144.105469 170.699219 144.230469 L 170.539062 143.820312 C 170.757812 143.664062 171.132812 143.558594 171.480469 143.558594 C 172.234375 143.558594 172.574219 144.023438 172.574219 144.519531 C 172.574219 144.964844 172.324219 145.285156 172.011719 145.65625 C 171.722656 145.996094 171.617188 146.285156 171.636719 146.617188 L 171.644531 146.789062 Z M 170.984375 147.703125 C 170.984375 147.460938 171.152344 147.292969 171.378906 147.292969 C 171.609375 147.292969 171.769531 147.460938 171.769531 147.703125 C 171.769531 147.933594 171.617188 148.109375 171.375 148.109375 C 171.144531 148.109375 170.984375 147.933594 170.984375 147.703125 Z M 170.984375 147.703125 " fill-opacity="1" fill-rule="nonzero"/></g><g clip-path="url(#d3d1d32e21)"><path fill="#f2465d" d="M 168.589844 132.21875 L 35.664062 132.21875 C 33.660156 132.21875 32.039062 130.601562 32.039062 128.609375 L 32.039062 109.132812 C 32.039062 107.140625 33.660156 105.523438 35.664062 105.523438 L 168.589844 105.523438 C 170.589844 105.523438 172.214844 107.140625 172.214844 109.132812 L 172.214844 128.609375 C 172.214844 130.601562 170.589844 132.21875 168.589844 132.21875 Z M 168.589844 132.21875 " fill-opacity="1" fill-rule="nonzero"/></g><path fill="#ffffff" d="M 85.261719 122.964844 L 85.261719 113.679688 L 87.160156 113.679688 L 87.160156 121.386719 L 91.882812 121.386719 L 91.882812 122.964844 Z M 85.261719 122.964844 " fill-opacity="1" fill-rule="nonzero"/><path fill="#ffffff" d="M 92.804688 119.476562 C 92.804688 118.882812 92.953125 118.304688 93.246094 117.746094 C 93.542969 117.191406 93.960938 116.765625 94.5 116.46875 C 95.042969 116.175781 95.644531 116.03125 96.3125 116.03125 C 97.34375 116.03125 98.1875 116.363281 98.847656 117.027344 C 99.503906 117.695312 99.832031 118.539062 99.832031 119.554688 C 99.832031 120.582031 99.5 121.433594 98.835938 122.105469 C 98.171875 122.78125 97.335938 123.117188 96.324219 123.117188 C 95.699219 123.117188 95.105469 122.976562 94.539062 122.699219 C 93.972656 122.417969 93.542969 122.003906 93.246094 121.460938 C 92.953125 120.917969 92.804688 120.257812 92.804688 119.476562 Z M 94.652344 119.574219 C 94.652344 120.246094 94.8125 120.761719 95.132812 121.121094 C 95.453125 121.476562 95.847656 121.65625 96.320312 121.65625 C 96.789062 121.65625 97.183594 121.476562 97.503906 121.121094 C 97.820312 120.761719 97.980469 120.242188 97.980469 119.5625 C 97.980469 118.898438 97.820312 118.386719 97.503906 118.027344 C 97.183594 117.671875 96.789062 117.492188 96.320312 117.492188 C 95.847656 117.492188 95.453125 117.671875 95.132812 118.027344 C 94.8125 118.386719 94.652344 118.902344 94.652344 119.574219 Z M 94.652344 119.574219 " fill-opacity="1" fill-rule="nonzero"/><path fill="#ffffff" d="M 101.078125 123.414062 L 103.136719 123.660156 C 103.171875 123.898438 103.25 124.0625 103.375 124.152344 C 103.542969 124.28125 103.8125 124.34375 104.179688 124.34375 C 104.652344 124.34375 105.003906 124.273438 105.238281 124.132812 C 105.398438 124.039062 105.515625 123.890625 105.597656 123.679688 C 105.65625 123.53125 105.683594 123.257812 105.683594 122.855469 L 105.683594 121.867188 C 105.144531 122.601562 104.464844 122.964844 103.644531 122.964844 C 102.726562 122.964844 102.003906 122.582031 101.46875 121.808594 C 101.050781 121.199219 100.839844 120.441406 100.839844 119.535156 C 100.839844 118.398438 101.113281 117.53125 101.664062 116.929688 C 102.214844 116.328125 102.898438 116.027344 103.714844 116.027344 C 104.554688 116.027344 105.25 116.398438 105.796875 117.132812 L 105.796875 116.183594 L 107.484375 116.183594 L 107.484375 122.269531 C 107.484375 123.070312 107.417969 123.667969 107.285156 124.0625 C 107.152344 124.460938 106.964844 124.769531 106.726562 124.996094 C 106.488281 125.222656 106.167969 125.398438 105.769531 125.527344 C 105.367188 125.65625 104.863281 125.71875 104.25 125.71875 C 103.097656 125.71875 102.277344 125.523438 101.796875 125.128906 C 101.3125 124.734375 101.070312 124.234375 101.070312 123.628906 C 101.070312 123.570312 101.074219 123.496094 101.078125 123.414062 Z M 102.6875 119.433594 C 102.6875 120.152344 102.828125 120.679688 103.105469 121.015625 C 103.386719 121.347656 103.734375 121.515625 104.144531 121.515625 C 104.582031 121.515625 104.957031 121.34375 105.257812 121 C 105.5625 120.660156 105.714844 120.152344 105.714844 119.476562 C 105.714844 118.777344 105.570312 118.253906 105.277344 117.914062 C 104.988281 117.574219 104.621094 117.402344 104.175781 117.402344 C 103.742188 117.402344 103.386719 117.570312 103.105469 117.902344 C 102.828125 118.238281 102.6875 118.75 102.6875 119.433594 Z M 102.6875 119.433594 " fill-opacity="1" fill-rule="nonzero"/><path fill="#ffffff" d="M 109.265625 115.261719 L 109.265625 113.601562 L 111.070312 113.601562 L 111.070312 115.261719 Z M 109.265625 122.964844 L 109.265625 116.183594 L 111.070312 116.183594 L 111.070312 122.964844 Z M 109.265625 122.964844 " fill-opacity="1" fill-rule="nonzero"/><path fill="#ffffff" d="M 119.109375 122.964844 L 117.308594 122.964844 L 117.308594 119.503906 C 117.308594 118.773438 117.269531 118.296875 117.191406 118.082031 C 117.117188 117.867188 116.992188 117.699219 116.816406 117.582031 C 116.644531 117.460938 116.4375 117.402344 116.191406 117.402344 C 115.878906 117.402344 115.601562 117.488281 115.351562 117.65625 C 115.105469 117.828125 114.933594 118.054688 114.84375 118.335938 C 114.75 118.617188 114.703125 119.136719 114.703125 119.894531 L 114.703125 122.964844 L 112.902344 122.964844 L 112.902344 116.183594 L 114.578125 116.183594 L 114.578125 117.179688 C 115.171875 116.414062 115.917969 116.03125 116.820312 116.03125 C 117.21875 116.03125 117.582031 116.101562 117.910156 116.242188 C 118.242188 116.386719 118.488281 116.566406 118.660156 116.789062 C 118.828125 117.011719 118.945312 117.261719 119.011719 117.542969 C 119.078125 117.824219 119.109375 118.226562 119.109375 118.75 Z M 119.109375 122.964844 " fill-opacity="1" fill-rule="nonzero"/><g clip-path="url(#80089429b1)"><path fill="#266099" d="M 156.617188 49.65625 L 47.636719 49.65625 C 38.820312 49.65625 31.671875 42.535156 31.671875 33.757812 C 31.671875 24.976562 38.820312 17.859375 47.636719 17.859375 L 156.617188 17.859375 C 165.433594 17.859375 172.578125 24.976562 172.578125 33.757812 C 172.578125 42.535156 165.433594 49.65625 156.617188 49.65625 Z M 156.617188 49.65625 " fill-opacity="1" fill-rule="nonzero"/></g><path fill="#ffffff" d="M 77.558594 30.082031 L 76.59375 30.082031 L 76.59375 34.429688 C 76.59375 36.054688 75.894531 36.773438 74.800781 36.773438 C 73.816406 36.773438 73.082031 36.078125 73.082031 34.429688 L 73.082031 30.082031 L 72.117188 30.082031 L 72.117188 34.410156 C 72.117188 36.6875 73.257812 37.550781 74.765625 37.550781 C 76.367188 37.550781 77.558594 36.621094 77.558594 34.367188 Z M 77.558594 30.082031 " fill-opacity="1" fill-rule="nonzero"/><path fill="#ffffff" d="M 80.722656 32.035156 C 79.582031 32.035156 78.894531 32.730469 78.894531 33.582031 C 78.894531 34.214844 79.34375 34.738281 80.292969 35.074219 C 81.007812 35.335938 81.28125 35.585938 81.28125 36.046875 C 81.28125 36.480469 80.953125 36.828125 80.25 36.828125 C 79.769531 36.828125 79.265625 36.632812 78.980469 36.449219 L 78.742188 37.179688 C 79.113281 37.398438 79.648438 37.539062 80.230469 37.539062 C 81.488281 37.539062 82.210938 36.882812 82.210938 35.957031 C 82.210938 35.171875 81.738281 34.714844 80.820312 34.367188 C 80.128906 34.105469 79.8125 33.910156 79.8125 33.472656 C 79.8125 33.082031 80.128906 32.753906 80.699219 32.753906 C 81.191406 32.753906 81.574219 32.929688 81.78125 33.058594 L 82.023438 32.359375 C 81.726562 32.1875 81.257812 32.035156 80.722656 32.035156 Z M 80.722656 32.035156 " fill-opacity="1" fill-rule="nonzero"/><path fill="#ffffff" d="M 83.992188 34.277344 C 84.070312 33.613281 84.496094 32.71875 85.472656 32.71875 C 86.554688 32.71875 86.816406 33.667969 86.804688 34.277344 Z M 85.546875 32.035156 C 84.003906 32.035156 83.0625 33.289062 83.0625 34.878906 C 83.0625 36.46875 84.039062 37.539062 85.667969 37.539062 C 86.511719 37.539062 87.089844 37.363281 87.429688 37.210938 L 87.265625 36.523438 C 86.90625 36.675781 86.488281 36.796875 85.800781 36.796875 C 84.835938 36.796875 84.003906 36.261719 83.984375 34.964844 L 87.703125 34.964844 C 87.714844 34.867188 87.738281 34.714844 87.738281 34.519531 C 87.738281 33.546875 87.277344 32.035156 85.546875 32.035156 Z M 85.546875 32.035156 " fill-opacity="1" fill-rule="nonzero"/><path fill="#ffffff" d="M 91.273438 32.035156 C 90.625 32.035156 90.046875 32.480469 89.804688 33.1875 L 89.761719 33.1875 L 89.730469 32.152344 L 88.886719 32.152344 C 88.917969 32.644531 88.929688 33.179688 88.929688 33.800781 L 88.929688 37.429688 L 89.882812 37.429688 L 89.882812 34.617188 C 89.882812 34.453125 89.902344 34.300781 89.925781 34.171875 C 90.058594 33.449219 90.539062 32.9375 91.21875 32.9375 C 91.347656 32.9375 91.449219 32.949219 91.546875 32.972656 L 91.546875 32.066406 C 91.457031 32.042969 91.382812 32.035156 91.273438 32.035156 Z M 91.273438 32.035156 " fill-opacity="1" fill-rule="nonzero"/><path fill="#ffffff" d="M 95.191406 32.035156 C 94.316406 32.035156 93.703125 32.523438 93.4375 33.027344 L 93.417969 33.027344 L 93.363281 32.152344 L 92.507812 32.152344 C 92.542969 32.589844 92.550781 33.035156 92.550781 33.582031 L 92.550781 37.429688 L 93.515625 37.429688 L 93.515625 34.257812 C 93.515625 34.09375 93.539062 33.929688 93.582031 33.8125 C 93.746094 33.277344 94.238281 32.828125 94.871094 32.828125 C 95.78125 32.828125 96.097656 33.539062 96.097656 34.386719 L 96.097656 37.429688 L 97.0625 37.429688 L 97.0625 34.277344 C 97.0625 32.46875 95.921875 32.035156 95.191406 32.035156 Z M 95.191406 32.035156 " fill-opacity="1" fill-rule="nonzero"/><path fill="#ffffff" d="M 100.082031 36.839844 C 99.589844 36.839844 99.175781 36.546875 99.175781 35.925781 C 99.175781 34.949219 100.253906 34.734375 101.261719 34.734375 C 101.316406 34.734375 101.367188 34.734375 101.417969 34.738281 L 101.417969 35.652344 C 101.417969 35.75 101.394531 35.859375 101.363281 35.957031 C 101.210938 36.40625 100.773438 36.839844 100.082031 36.839844 Z M 100.335938 32.035156 C 99.667969 32.035156 99.03125 32.21875 98.59375 32.503906 L 98.8125 33.132812 C 99.183594 32.894531 99.699219 32.742188 100.191406 32.742188 C 101.277344 32.742188 101.394531 33.527344 101.394531 33.964844 L 101.394531 34.070312 C 101.378906 34.070312 101.363281 34.070312 101.347656 34.070312 C 99.332031 34.070312 98.210938 34.769531 98.210938 36.035156 C 98.210938 36.796875 98.757812 37.550781 99.832031 37.550781 C 100.585938 37.550781 101.15625 37.179688 101.449219 36.765625 L 101.484375 36.765625 L 101.558594 37.429688 L 102.4375 37.429688 C 102.371094 37.070312 102.347656 36.621094 102.347656 36.164062 L 102.347656 34.191406 C 102.347656 33.132812 101.953125 32.035156 100.335938 32.035156 Z M 100.335938 32.035156 " fill-opacity="1" fill-rule="nonzero"/><path fill="#ffffff" d="M 109.726562 32.035156 C 109.222656 32.035156 108.871094 32.164062 108.554688 32.40625 C 108.335938 32.566406 108.125 32.796875 107.960938 33.089844 L 107.941406 33.089844 C 107.710938 32.46875 107.164062 32.035156 106.441406 32.035156 C 105.566406 32.035156 105.074219 32.503906 104.777344 33.003906 L 104.746094 33.003906 L 104.703125 32.152344 L 103.859375 32.152344 C 103.890625 32.589844 103.902344 33.035156 103.902344 33.582031 L 103.902344 37.429688 L 104.84375 37.429688 L 104.84375 34.246094 C 104.84375 34.082031 104.867188 33.917969 104.921875 33.777344 C 105.074219 33.296875 105.511719 32.820312 106.113281 32.820312 C 106.847656 32.820312 107.21875 33.429688 107.21875 34.269531 L 107.21875 37.429688 L 108.160156 37.429688 L 108.160156 34.171875 C 108.160156 33.996094 108.191406 33.820312 108.234375 33.691406 C 108.402344 33.222656 108.828125 32.820312 109.375 32.820312 C 110.152344 32.820312 110.523438 33.429688 110.523438 34.441406 L 110.523438 37.429688 L 111.464844 37.429688 L 111.464844 34.324219 C 111.464844 32.492188 110.425781 32.035156 109.726562 32.035156 Z M 109.726562 32.035156 " fill-opacity="1" fill-rule="nonzero"/><path fill="#ffffff" d="M 113.578125 34.277344 C 113.652344 33.613281 114.082031 32.71875 115.054688 32.71875 C 116.136719 32.71875 116.402344 33.667969 116.390625 34.277344 Z M 115.132812 32.035156 C 113.589844 32.035156 112.648438 33.289062 112.648438 34.878906 C 112.648438 36.46875 113.621094 37.539062 115.253906 37.539062 C 116.09375 37.539062 116.675781 37.363281 117.015625 37.210938 L 116.851562 36.523438 C 116.488281 36.675781 116.074219 36.796875 115.382812 36.796875 C 114.421875 36.796875 113.589844 36.261719 113.566406 34.964844 L 117.289062 34.964844 C 117.296875 34.867188 117.320312 34.714844 117.320312 34.519531 C 117.320312 33.546875 116.859375 32.035156 115.132812 32.035156 Z M 115.132812 32.035156 " fill-opacity="1" fill-rule="nonzero"/><path fill="#ffffff" d="M 51.21875 33.765625 C 51.21875 37.492188 48.183594 40.515625 44.441406 40.515625 C 40.699219 40.515625 37.664062 37.492188 37.664062 33.765625 C 37.664062 30.039062 40.699219 27.015625 44.441406 27.015625 C 48.183594 27.015625 51.21875 30.039062 51.21875 33.765625 Z M 51.21875 33.765625 " fill-opacity="1" fill-rule="nonzero"/><path fill="#336699" d="M 46.78125 31.660156 C 46.78125 32.945312 45.734375 33.988281 44.441406 33.988281 C 43.148438 33.988281 42.101562 32.945312 42.101562 31.660156 C 42.101562 30.375 43.148438 29.332031 44.441406 29.332031 C 45.734375 29.332031 46.78125 30.375 46.78125 31.660156 Z M 46.78125 31.660156 " fill-opacity="1" fill-rule="nonzero"/><path fill="#336699" d="M 39.710938 36.324219 C 39.710938 36.324219 40.640625 34.257812 41.789062 34.257812 L 47.09375 34.257812 C 48.242188 34.257812 49.171875 36.324219 49.171875 36.324219 C 49.171875 37.464844 39.710938 37.464844 39.710938 36.324219 Z M 39.710938 36.324219 " fill-opacity="1" fill-rule="nonzero"/><g clip-path="url(#e018b6c8bd)"><path fill="#266099" d="M 156.617188 94.25 L 47.636719 94.25 C 38.820312 94.25 31.671875 87.132812 31.671875 78.351562 C 31.671875 69.570312 38.820312 62.453125 47.636719 62.453125 L 156.617188 62.453125 C 165.433594 62.453125 172.578125 69.570312 172.578125 78.351562 C 172.578125 87.132812 165.433594 94.25 156.617188 94.25 Z M 156.617188 94.25 " fill-opacity="1" fill-rule="nonzero"/></g><path fill="#ffffff" d="M 73.871094 78.359375 C 73.550781 78.359375 73.289062 78.339844 73.082031 78.285156 L 73.082031 75.429688 C 73.246094 75.386719 73.5625 75.351562 73.980469 75.351562 C 75.03125 75.351562 75.71875 75.820312 75.71875 76.792969 C 75.71875 77.804688 75.019531 78.359375 73.871094 78.359375 Z M 73.957031 74.601562 C 73.191406 74.601562 72.589844 74.664062 72.128906 74.742188 L 72.128906 82 L 73.082031 82 L 73.082031 79.058594 C 73.300781 79.113281 73.5625 79.125 73.847656 79.125 C 74.777344 79.125 75.597656 78.851562 76.101562 78.316406 C 76.476562 77.9375 76.671875 77.414062 76.671875 76.746094 C 76.671875 76.09375 76.429688 75.558594 76.027344 75.210938 C 75.589844 74.820312 74.898438 74.601562 73.957031 74.601562 Z M 73.957031 74.601562 " fill-opacity="1" fill-rule="nonzero"/><path fill="#ffffff" d="M 79.089844 81.414062 C 78.597656 81.414062 78.183594 81.117188 78.183594 80.496094 C 78.183594 79.523438 79.261719 79.308594 80.269531 79.308594 C 80.324219 79.308594 80.375 79.308594 80.425781 79.308594 L 80.425781 80.226562 C 80.425781 80.324219 80.40625 80.433594 80.371094 80.53125 C 80.21875 80.976562 79.78125 81.414062 79.089844 81.414062 Z M 79.34375 76.605469 C 78.675781 76.605469 78.039062 76.792969 77.601562 77.074219 L 77.820312 77.707031 C 78.195312 77.46875 78.707031 77.316406 79.199219 77.316406 C 80.285156 77.316406 80.402344 78.101562 80.402344 78.535156 L 80.402344 78.644531 C 80.386719 78.644531 80.375 78.644531 80.359375 78.644531 C 78.339844 78.644531 77.21875 79.339844 77.21875 80.605469 C 77.21875 81.371094 77.765625 82.121094 78.839844 82.121094 C 79.59375 82.121094 80.164062 81.75 80.457031 81.335938 L 80.492188 81.335938 L 80.566406 82.003906 L 81.445312 82.003906 C 81.378906 81.644531 81.355469 81.195312 81.355469 80.738281 L 81.355469 78.765625 C 81.355469 77.707031 80.960938 76.605469 79.34375 76.605469 Z M 79.34375 76.605469 " fill-opacity="1" fill-rule="nonzero"/><path fill="#ffffff" d="M 84.519531 76.605469 C 83.382812 76.605469 82.691406 77.304688 82.691406 78.15625 C 82.691406 78.785156 83.140625 79.308594 84.09375 79.648438 C 84.804688 79.910156 85.078125 80.160156 85.078125 80.617188 C 85.078125 81.054688 84.75 81.402344 84.046875 81.402344 C 83.566406 81.402344 83.0625 81.207031 82.777344 81.019531 L 82.539062 81.75 C 82.910156 81.96875 83.445312 82.109375 84.027344 82.109375 C 85.285156 82.109375 86.007812 81.457031 86.007812 80.53125 C 86.007812 79.746094 85.539062 79.289062 84.617188 78.9375 C 83.929688 78.675781 83.609375 78.480469 83.609375 78.046875 C 83.609375 77.652344 83.929688 77.324219 84.496094 77.324219 C 84.988281 77.324219 85.375 77.5 85.582031 77.628906 L 85.820312 76.933594 C 85.527344 76.757812 85.054688 76.605469 84.519531 76.605469 Z M 84.519531 76.605469 " fill-opacity="1" fill-rule="nonzero"/><path fill="#ffffff" d="M 88.855469 76.605469 C 87.714844 76.605469 87.027344 77.304688 87.027344 78.15625 C 87.027344 78.785156 87.476562 79.308594 88.425781 79.648438 C 89.136719 79.910156 89.410156 80.160156 89.410156 80.617188 C 89.410156 81.054688 89.082031 81.402344 88.382812 81.402344 C 87.902344 81.402344 87.398438 81.207031 87.113281 81.019531 L 86.871094 81.75 C 87.246094 81.96875 87.78125 82.109375 88.359375 82.109375 C 89.621094 82.109375 90.34375 81.457031 90.34375 80.53125 C 90.34375 79.746094 89.871094 79.289062 88.953125 78.9375 C 88.261719 78.675781 87.945312 78.480469 87.945312 78.046875 C 87.945312 77.652344 88.261719 77.324219 88.832031 77.324219 C 89.324219 77.324219 89.707031 77.5 89.914062 77.628906 L 90.15625 76.933594 C 89.859375 76.757812 89.390625 76.605469 88.855469 76.605469 Z M 88.855469 76.605469 " fill-opacity="1" fill-rule="nonzero"/><path fill="#ffffff" d="M 98.671875 76.726562 L 97.71875 76.726562 L 96.964844 79.375 C 96.789062 79.996094 96.644531 80.550781 96.558594 81.085938 L 96.527344 81.085938 C 96.40625 80.550781 96.253906 79.996094 96.054688 79.363281 L 95.234375 76.726562 L 94.425781 76.726562 L 93.558594 79.417969 C 93.382812 79.984375 93.210938 80.550781 93.089844 81.085938 L 93.054688 81.085938 C 92.957031 80.542969 92.816406 79.996094 92.664062 79.40625 L 91.960938 76.726562 L 90.976562 76.726562 L 92.574219 82.003906 L 93.449219 82.003906 L 94.304688 79.496094 C 94.488281 78.929688 94.65625 78.382812 94.785156 77.75 L 94.808594 77.75 C 94.9375 78.371094 95.09375 78.894531 95.277344 79.484375 L 96.085938 82.003906 L 96.964844 82.003906 Z M 98.671875 76.726562 " fill-opacity="1" fill-rule="nonzero"/><path fill="#ffffff" d="M 101.722656 81.402344 C 100.785156 81.402344 100.117188 80.53125 100.117188 79.375 C 100.117188 78.371094 100.609375 77.324219 101.746094 77.324219 C 102.886719 77.324219 103.332031 78.460938 103.332031 79.351562 C 103.332031 80.542969 102.644531 81.402344 101.722656 81.402344 Z M 101.769531 76.605469 C 100.300781 76.605469 99.140625 77.640625 99.140625 79.40625 C 99.140625 81.074219 100.246094 82.121094 101.679688 82.121094 C 102.960938 82.121094 104.320312 81.273438 104.320312 79.320312 C 104.320312 77.707031 103.289062 76.605469 101.769531 76.605469 Z M 101.769531 76.605469 " fill-opacity="1" fill-rule="nonzero"/><path fill="#ffffff" d="M 107.875 76.605469 C 107.230469 76.605469 106.648438 77.054688 106.410156 77.761719 L 106.367188 77.761719 L 106.332031 76.726562 L 105.488281 76.726562 C 105.523438 77.21875 105.535156 77.75 105.535156 78.371094 L 105.535156 82 L 106.484375 82 L 106.484375 79.191406 C 106.484375 79.027344 106.507812 78.875 106.53125 78.742188 C 106.660156 78.023438 107.140625 77.511719 107.820312 77.511719 C 107.953125 77.511719 108.050781 77.523438 108.148438 77.542969 L 108.148438 76.640625 C 108.0625 76.617188 107.984375 76.605469 107.875 76.605469 Z M 107.875 76.605469 " fill-opacity="1" fill-rule="nonzero"/><path fill="#ffffff" d="M 111.160156 81.347656 C 110.121094 81.347656 109.59375 80.464844 109.59375 79.398438 C 109.59375 78.230469 110.183594 77.359375 111.179688 77.359375 C 111.902344 77.359375 112.429688 77.859375 112.570312 78.46875 C 112.605469 78.589844 112.613281 78.753906 112.613281 78.875 L 112.613281 79.789062 C 112.613281 79.941406 112.605469 80.074219 112.570312 80.203125 C 112.394531 80.921875 111.804688 81.347656 111.160156 81.347656 Z M 113.578125 74.261719 L 112.613281 74.261719 L 112.613281 77.414062 L 112.59375 77.414062 C 112.351562 76.988281 111.804688 76.605469 110.996094 76.605469 C 109.703125 76.605469 108.609375 77.683594 108.621094 79.441406 C 108.621094 81.042969 109.605469 82.121094 110.886719 82.121094 C 111.75 82.121094 112.394531 81.675781 112.691406 81.085938 L 112.714844 81.085938 L 112.757812 82 L 113.621094 82 C 113.589844 81.640625 113.578125 81.109375 113.578125 80.640625 Z M 113.578125 74.261719 " fill-opacity="1" fill-rule="nonzero"/><path fill="#ffffff" d="M 51.21875 78.382812 C 51.21875 82.113281 48.183594 85.132812 44.441406 85.132812 C 40.699219 85.132812 37.664062 82.113281 37.664062 78.382812 C 37.664062 74.65625 40.699219 71.632812 44.441406 71.632812 C 48.183594 71.632812 51.21875 74.65625 51.21875 78.382812 Z M 51.21875 78.382812 " fill-opacity="1" fill-rule="nonzero"/><path fill="#336699" d="M 44.3125 73.550781 C 42.445312 73.550781 40.925781 75.164062 40.925781 77.148438 L 40.925781 77.402344 L 40.929688 77.402344 L 40.929688 81.683594 C 40.929688 81.984375 41.175781 82.226562 41.476562 82.226562 L 47.148438 82.226562 C 47.453125 82.226562 47.695312 81.984375 47.695312 81.683594 L 47.695312 77.402344 L 47.703125 77.402344 L 47.703125 77.148438 C 47.703125 75.164062 46.179688 73.550781 44.3125 73.550781 Z M 44.808594 80.933594 L 43.820312 80.933594 L 43.992188 79.929688 C 43.804688 79.820312 43.675781 79.617188 43.675781 79.386719 C 43.675781 79.035156 43.960938 78.75 44.3125 78.75 C 44.664062 78.75 44.949219 79.035156 44.949219 79.386719 C 44.949219 79.617188 44.824219 79.816406 44.636719 79.929688 Z M 47.242188 77.304688 L 41.382812 77.304688 L 41.382812 77.148438 C 41.382812 75.417969 42.699219 74.007812 44.3125 74.007812 C 45.929688 74.007812 47.242188 75.417969 47.242188 77.148438 Z M 47.242188 77.304688 " fill-opacity="1" fill-rule="nonzero"/></svg>