<svg xmlns="http://www.w3.org/2000/svg" xmlns:xlink="http://www.w3.org/1999/xlink" width="241" zoomAndPan="magnify" viewBox="0 0 180.75 228.749994" height="305" preserveAspectRatio="xMidYMid meet" version="1.0"><defs><g/><clipPath id="3cfff0c871"><path d="M 0.0234375 0.367188 L 180.023438 0.367188 L 180.023438 228.367188 L 0.0234375 228.367188 Z M 0.0234375 0.367188 " clip-rule="nonzero"/></clipPath><clipPath id="858813723c"><path d="M 22.523438 0.367188 L 157.523438 0.367188 C 169.949219 0.367188 180.023438 10.441406 180.023438 22.867188 L 180.023438 205.867188 C 180.023438 218.292969 169.949219 228.367188 157.523438 228.367188 L 22.523438 228.367188 C 10.09375 228.367188 0.0234375 218.292969 0.0234375 205.867188 L 0.0234375 22.867188 C 0.0234375 10.441406 10.09375 0.367188 22.523438 0.367188 " clip-rule="nonzero"/></clipPath><clipPath id="de4d95d15f"><path d="M 23.953125 47.28125 L 155 47.28125 L 155 181.53125 L 23.953125 181.53125 Z M 23.953125 47.28125 " clip-rule="nonzero"/></clipPath></defs><g clip-path="url(#3cfff0c871)"><g clip-path="url(#858813723c)"><path fill="#ffffff" d="M 0.0234375 0.367188 L 180.023438 0.367188 L 180.023438 228.367188 L 0.0234375 228.367188 Z M 0.0234375 0.367188 " fill-opacity="1" fill-rule="nonzero"/></g></g><path fill="#808080" d="M 93.8125 48.195312 L 84.296875 48.195312 C 81.5 48.195312 79.234375 50.460938 79.234375 53.226562 L 79.234375 56.933594 C 79.234375 59.257812 77.730469 61.203125 75.492188 61.820312 C 71.015625 63.027344 66.804688 64.761719 62.886719 67.027344 C 60.882812 68.175781 58.410156 67.851562 56.789062 66.234375 L 54.167969 63.613281 C 52.195312 61.644531 48.984375 61.644531 47.011719 63.613281 L 40.296875 70.324219 C 38.324219 72.296875 38.324219 75.503906 40.296875 77.476562 L 42.917969 80.09375 C 44.570312 81.742188 44.890625 84.183594 43.714844 86.1875 C 41.445312 90.101562 39.679688 94.308594 38.5 98.78125 C 37.914062 101.019531 35.9375 102.519531 33.613281 102.519531 L 29.902344 102.519531 C 27.105469 102.519531 24.867188 104.785156 24.867188 107.582031 L 24.867188 117.085938 C 24.867188 119.851562 27.132812 122.117188 29.902344 122.117188 L 33.613281 122.117188 C 35.9375 122.117188 37.882812 123.621094 38.5 125.855469 C 39.710938 130.300781 41.445312 134.539062 43.714844 138.453125 C 44.863281 140.453125 44.539062 142.894531 42.917969 144.542969 L 40.296875 147.160156 C 38.324219 149.132812 38.324219 152.339844 40.296875 154.3125 L 47.011719 161.023438 C 48.984375 162.996094 52.195312 162.996094 54.167969 161.023438 L 56.789062 158.402344 C 58.441406 156.753906 60.882812 156.433594 62.886719 157.609375 C 66.804688 159.875 71.015625 161.640625 75.460938 162.816406 C 77.699219 163.40625 79.203125 165.378906 79.203125 167.703125 L 79.203125 171.410156 C 79.203125 174.175781 81.472656 176.445312 84.269531 176.445312 L 93.78125 176.445312 C 96.550781 176.445312 98.816406 174.175781 98.816406 171.410156 L 98.816406 167.703125 C 98.816406 165.378906 100.320312 163.4375 102.558594 162.816406 C 107.003906 161.613281 111.246094 159.847656 115.164062 157.609375 C 117.164062 156.460938 119.609375 156.753906 121.257812 158.402344 L 123.878906 161.023438 C 125.855469 162.996094 129.0625 162.996094 131.035156 161.023438 L 137.75 154.3125 C 139.726562 152.339844 139.726562 149.132812 137.75 147.160156 L 135.128906 144.542969 C 133.480469 142.894531 133.15625 140.453125 134.335938 138.453125 C 136.601562 134.539062 138.371094 130.328125 139.546875 125.855469 C 140.136719 123.621094 142.109375 122.117188 144.4375 122.117188 L 148.148438 122.117188 C 150.917969 122.117188 153.183594 119.851562 153.183594 117.085938 L 153.183594 107.582031 C 153.183594 104.785156 150.917969 102.519531 148.148438 102.519531 L 144.4375 102.519531 C 142.109375 102.519531 140.167969 101.019531 139.546875 98.78125 C 138.339844 94.308594 136.574219 90.101562 134.335938 86.1875 C 133.1875 84.183594 133.480469 81.714844 135.128906 80.09375 L 137.75 77.476562 C 139.726562 75.503906 139.726562 72.296875 137.75 70.324219 L 131.035156 63.613281 C 129.0625 61.644531 125.855469 61.644531 123.878906 63.613281 L 121.257812 66.234375 C 119.609375 67.882812 117.164062 68.207031 115.164062 67.027344 C 111.246094 64.761719 107.035156 62.996094 102.558594 61.820312 C 100.320312 61.230469 98.816406 59.257812 98.816406 56.933594 L 98.816406 53.253906 C 98.847656 50.460938 96.578125 48.195312 93.8125 48.195312 Z M 93.8125 48.195312 " fill-opacity="1" fill-rule="evenodd"/><path fill="#b3b3b3" d="M 89.128906 72.265625 C 66.890625 72.265625 48.867188 90.277344 48.867188 112.496094 C 48.867188 134.714844 66.890625 152.722656 89.128906 152.722656 C 111.363281 152.722656 129.386719 134.714844 129.386719 112.496094 C 129.386719 90.277344 111.363281 72.265625 89.128906 72.265625 Z M 89.128906 72.265625 " fill-opacity="1" fill-rule="evenodd"/><path fill="#e6e6e6" d="M 52.226562 96.398438 C 50.074219 101.34375 48.867188 106.785156 48.867188 112.523438 C 48.867188 134.742188 66.890625 152.753906 89.128906 152.753906 C 101.527344 152.753906 112.601562 147.160156 119.992188 138.363281 C 122.144531 133.417969 123.351562 127.976562 123.351562 122.234375 C 123.351562 100.019531 105.324219 82.007812 83.089844 82.007812 C 70.691406 82.007812 59.617188 87.597656 52.226562 96.398438 Z M 52.226562 96.398438 " fill-opacity="1" fill-rule="evenodd"/><path fill="#ffffff" d="M 67.804688 96.484375 C 63.800781 96.484375 60.53125 99.753906 60.53125 103.753906 C 60.53125 107.757812 63.800781 111.023438 67.804688 111.023438 C 71.8125 111.023438 75.078125 107.785156 75.078125 103.753906 C 75.078125 99.753906 71.8125 96.484375 67.804688 96.484375 Z M 67.804688 96.484375 " fill-opacity="1" fill-rule="evenodd"/><path fill="#b3b3b3" d="M 53.816406 73.003906 C 52.226562 73.003906 50.960938 74.269531 50.960938 75.855469 C 50.960938 77.445312 52.226562 78.710938 53.816406 78.710938 C 55.40625 78.710938 56.671875 77.445312 56.671875 75.855469 C 56.671875 74.296875 55.40625 73.003906 53.816406 73.003906 Z M 53.816406 73.003906 " fill-opacity="1" fill-rule="evenodd"/><path fill="#dd6e42" d="M 70.925781 117.703125 C 57.703125 116.203125 61.445312 123.414062 51.3125 122.265625 C 45.894531 121.648438 41.625 117.761719 40.296875 112.820312 L 50.015625 113.90625 C 54.082031 114.378906 55.171875 104.875 51.105469 104.402344 L 41.386719 103.3125 C 43.800781 98.78125 48.839844 95.957031 54.257812 96.574219 C 63.535156 97.632812 59.324219 103.929688 75.816406 105.816406 L 98.582031 108.40625 C 115.074219 110.289062 112.363281 103.195312 121.671875 104.253906 C 127.089844 104.875 131.359375 108.757812 132.6875 113.703125 L 122.910156 112.582031 C 118.84375 112.113281 117.753906 121.617188 121.820312 122.058594 L 131.597656 123.179688 C 129.179688 127.710938 124.144531 130.535156 118.726562 129.917969 C 109.65625 128.886719 113.453125 122.855469 98.375 120.824219 C 87.714844 119.410156 81.617188 118.910156 70.925781 117.703125 Z M 70.925781 117.703125 " fill-opacity="1" fill-rule="evenodd"/><path fill="#fbb13c" d="M 53.640625 108.964844 C 53.726562 106.757812 52.960938 104.636719 51.078125 104.433594 L 41.359375 103.34375 C 43.773438 98.8125 48.808594 95.984375 54.226562 96.605469 C 63.503906 97.664062 59.292969 103.960938 75.785156 105.84375 L 98.550781 108.433594 C 115.046875 110.316406 112.335938 103.226562 121.640625 104.285156 C 127.0625 104.902344 131.332031 108.789062 132.65625 113.730469 L 122.878906 112.613281 C 120.996094 112.40625 119.757812 114.320312 119.34375 116.496094 C 114.574219 116.496094 109.683594 116.410156 104.679688 116.175781 C 85.121094 115.203125 67.304688 112.582031 53.640625 108.964844 Z M 53.640625 108.964844 " fill-opacity="1" fill-rule="evenodd"/><path fill="#e18a7a" d="M 99.316406 103.226562 C 98.847656 98.164062 107.503906 96.308594 107.503906 104.933594 C 107.503906 112.082031 108.890625 129.179688 106.59375 134.476562 C 105.238281 137.65625 104.296875 141.039062 103.824219 144.484375 L 74.109375 144.484375 C 74.109375 144.277344 74.109375 144.101562 74.109375 143.894531 C 74.109375 131.445312 66.15625 132.710938 66.15625 117.558594 C 74.167969 118.824219 72.074219 107.492188 72.074219 101.28125 C 72.074219 96.574219 81.148438 97.015625 81.148438 101.695312 C 81.148438 96.988281 90.21875 97.429688 90.21875 102.105469 C 90.246094 97.457031 99.316406 97.25 99.316406 103.226562 Z M 99.316406 103.226562 " fill-opacity="1" fill-rule="evenodd"/><path fill="#eeb9a2" d="M 74.078125 142.511719 C 73.519531 131.507812 66.1875 132.125 66.1875 117.558594 C 74.195312 118.824219 72.105469 107.492188 72.105469 101.28125 C 72.105469 96.574219 81.175781 97.015625 81.175781 101.695312 C 81.175781 96.988281 90.246094 97.429688 90.246094 102.105469 C 90.246094 98.457031 95.929688 97.546875 98.289062 100.28125 C 98.492188 101.988281 98.609375 103.753906 98.609375 105.550781 C 98.640625 122.617188 88.390625 137.15625 74.078125 142.511719 Z M 74.078125 142.511719 " fill-opacity="1" fill-rule="evenodd"/><path fill="#224465" d="M 68.128906 158.699219 L 68.128906 149.222656 C 68.128906 146.632812 70.25 144.484375 72.871094 144.484375 L 104.824219 144.484375 C 107.445312 144.484375 109.566406 146.632812 109.566406 149.222656 L 109.566406 158.699219 C 109.566406 161.289062 107.445312 163.4375 104.824219 163.4375 L 72.871094 163.4375 C 70.28125 163.4375 68.128906 161.289062 68.128906 158.699219 Z M 68.128906 158.699219 " fill-opacity="1" fill-rule="evenodd"/><path fill="#336699" d="M 68.128906 158.699219 L 68.128906 149.222656 C 68.128906 146.632812 70.25 144.484375 72.871094 144.484375 L 88.480469 144.484375 C 88.539062 145.101562 88.570312 145.75 88.570312 146.398438 C 88.570312 153.664062 84.828125 160.023438 79.292969 163.464844 L 72.902344 163.464844 C 70.28125 163.4375 68.128906 161.289062 68.128906 158.699219 Z M 68.128906 158.699219 " fill-opacity="1" fill-rule="evenodd"/><path fill="#6a8fb4" d="M 74.695312 155.519531 L 74.695312 151.78125 C 74.695312 151.015625 75.34375 150.371094 76.109375 150.371094 L 83.0625 150.371094 C 83.828125 150.371094 84.476562 151.015625 84.476562 151.78125 L 84.476562 155.519531 C 84.476562 156.285156 83.828125 156.933594 83.0625 156.933594 L 76.109375 156.933594 C 75.316406 156.933594 74.695312 156.285156 74.695312 155.519531 Z M 74.695312 155.519531 " fill-opacity="1" fill-rule="evenodd"/><path fill="#6a8fb4" d="M 87.15625 155.726562 L 87.15625 151.578125 C 87.15625 150.898438 87.714844 150.371094 88.363281 150.371094 L 91.542969 150.371094 C 92.21875 150.371094 92.75 150.898438 92.75 151.578125 L 92.75 155.726562 C 92.75 156.375 92.21875 156.933594 91.542969 156.933594 L 88.332031 156.933594 C 87.683594 156.933594 87.15625 156.375 87.15625 155.726562 Z M 87.15625 155.726562 " fill-opacity="1" fill-rule="evenodd"/><path fill="#ff6666" d="M 71.515625 163.230469 L 106.210938 163.230469 L 106.210938 176.445312 C 106.210938 178.769531 104.324219 180.652344 102 180.652344 L 75.699219 180.652344 C 73.402344 180.652344 71.515625 178.769531 71.515625 176.445312 Z M 71.515625 163.230469 " fill-opacity="1" fill-rule="evenodd"/><path fill="#eeb9a2" d="M 29.988281 63.9375 C 32.375 63.9375 34.320312 65.851562 34.320312 68.265625 C 34.320312 70.648438 32.375 72.589844 29.988281 72.589844 C 27.605469 72.589844 25.660156 70.648438 25.660156 68.265625 C 25.660156 65.878906 27.605469 63.9375 29.988281 63.9375 Z M 29.988281 63.9375 " fill-opacity="1" fill-rule="evenodd"/><path fill="#eeb9a2" d="M 29.8125 79.152344 C 30.960938 79.152344 31.90625 80.066406 31.90625 81.210938 C 31.90625 82.359375 30.992188 83.300781 29.8125 83.300781 C 28.664062 83.300781 27.722656 82.390625 27.722656 81.210938 C 27.722656 80.09375 28.664062 79.152344 29.8125 79.152344 Z M 29.8125 79.152344 " fill-opacity="1" fill-rule="evenodd"/><path fill="#eeb9a2" d="M 149.738281 129.359375 C 151.828125 129.359375 153.507812 131.066406 153.507812 133.125 C 153.507812 135.183594 151.800781 136.890625 149.738281 136.890625 C 147.648438 136.890625 145.96875 135.183594 145.96875 133.125 C 145.96875 131.066406 147.648438 129.359375 149.738281 129.359375 Z M 149.738281 129.359375 " fill-opacity="1" fill-rule="evenodd"/><path fill="#eeb9a2" d="M 144.96875 140.980469 C 146.117188 140.980469 147.058594 141.894531 147.058594 143.070312 C 147.058594 144.21875 146.144531 145.132812 144.96875 145.132812 C 143.820312 145.132812 142.875 144.21875 142.875 143.070312 C 142.875 141.894531 143.820312 140.980469 144.96875 140.980469 Z M 144.96875 140.980469 " fill-opacity="1" fill-rule="evenodd"/><path fill="#eeb9a2" d="M 53.492188 170.675781 C 54.640625 170.675781 55.554688 171.585938 55.554688 172.765625 C 55.554688 173.914062 54.640625 174.855469 53.492188 174.855469 C 52.34375 174.855469 51.402344 173.914062 51.402344 172.765625 C 51.429688 171.585938 52.34375 170.675781 53.492188 170.675781 Z M 53.492188 170.675781 " fill-opacity="1" fill-rule="evenodd"/><g clip-path="url(#de4d95d15f)"><path fill="#010101" d="M 53.492188 169.792969 C 54.289062 169.792969 55.054688 170.117188 55.582031 170.644531 C 57.4375 172.5 56.113281 175.679688 53.492188 175.679688 C 50.871094 175.679688 49.546875 172.5 51.402344 170.644531 C 51.929688 170.117188 52.695312 169.792969 53.492188 169.792969 Z M 54.347656 171.910156 C 53.226562 170.824219 51.546875 172.5 52.636719 173.617188 C 53.785156 174.707031 55.464844 173.03125 54.347656 171.910156 Z M 144.96875 140.097656 C 145.792969 140.097656 146.527344 140.421875 147.058594 140.953125 C 148.914062 142.808594 147.589844 145.984375 144.96875 145.984375 C 142.347656 145.984375 141.019531 142.808594 142.875 140.953125 C 143.40625 140.421875 144.144531 140.097656 144.96875 140.097656 Z M 145.792969 142.1875 C 144.703125 141.101562 142.996094 142.777344 144.113281 143.894531 C 145.234375 144.984375 146.910156 143.308594 145.792969 142.1875 Z M 149.738281 128.476562 C 153.890625 128.476562 155.953125 133.507812 153.035156 136.421875 C 150.121094 139.363281 145.085938 137.273438 145.085938 133.125 C 145.054688 130.5625 147.148438 128.476562 149.738281 128.476562 Z M 151.769531 131.09375 C 149.945312 129.269531 146.824219 130.5625 146.824219 133.125 C 146.824219 135.714844 149.945312 137.007812 151.769531 135.183594 C 152.917969 134.066406 152.917969 132.210938 151.769531 131.09375 Z M 29.8125 78.269531 C 30.636719 78.269531 31.375 78.59375 31.90625 79.125 C 33.761719 80.976562 32.433594 84.15625 29.8125 84.15625 C 27.191406 84.15625 25.867188 80.949219 27.722656 79.125 C 28.253906 78.59375 28.988281 78.269531 29.8125 78.269531 Z M 30.667969 80.390625 C 29.578125 79.269531 27.871094 80.976562 28.988281 82.066406 C 30.078125 83.183594 31.757812 81.507812 30.667969 80.390625 Z M 29.988281 63.054688 C 34.613281 63.054688 36.941406 68.648438 33.671875 71.941406 C 30.402344 75.238281 24.777344 72.882812 24.777344 68.265625 C 24.777344 65.378906 27.105469 63.054688 29.988281 63.054688 Z M 32.40625 65.820312 C 30.253906 63.671875 26.542969 65.203125 26.542969 68.234375 C 26.542969 71.265625 30.253906 72.824219 32.40625 70.675781 C 33.761719 69.351562 33.761719 67.175781 32.40625 65.820312 Z M 71.632812 162.347656 L 106.121094 162.347656 C 106.679688 162.140625 107.179688 161.816406 107.59375 161.433594 C 108.300781 160.730469 108.714844 159.785156 108.714844 158.726562 L 108.714844 149.25 C 108.714844 147.132812 106.976562 145.394531 104.855469 145.394531 C 94.195312 145.394531 83.53125 145.394531 72.902344 145.394531 C 70.78125 145.394531 69.042969 147.132812 69.042969 149.25 L 69.042969 158.726562 C 69.011719 160.347656 70.101562 161.816406 71.632812 162.347656 Z M 107.09375 163.847656 L 107.09375 176.445312 C 107.09375 179.238281 104.796875 181.503906 102 181.503906 L 75.699219 181.503906 C 72.902344 181.503906 70.632812 179.238281 70.632812 176.445312 L 70.632812 163.847656 C 68.542969 162.9375 67.863281 161.140625 67.804688 161.082031 C 66.953125 160.730469 66.097656 160.316406 65.273438 159.875 C 64.300781 159.40625 63.359375 158.902344 62.476562 158.375 C 60.824219 157.402344 58.792969 157.667969 57.4375 159.050781 L 54.816406 161.671875 C 52.492188 163.996094 48.75 163.996094 46.425781 161.671875 L 39.710938 154.960938 C 38.558594 153.8125 37.972656 152.28125 37.972656 150.753906 C 37.972656 149.222656 38.558594 147.722656 39.710938 146.542969 L 42.332031 143.925781 C 43.683594 142.570312 43.949219 140.539062 42.976562 138.894531 C 41.828125 136.890625 40.796875 134.800781 39.914062 132.652344 C 39.089844 130.742188 38.238281 128.121094 37.675781 126.089844 C 37.175781 124.238281 35.585938 123 33.640625 123 L 29.902344 123 C 26.632812 123 23.953125 120.351562 23.953125 117.058594 L 23.953125 107.550781 C 23.953125 104.285156 26.601562 101.605469 29.902344 101.605469 L 33.613281 101.605469 C 35.527344 101.605469 37.148438 100.371094 37.648438 98.515625 C 38.855469 94.015625 40.652344 89.746094 42.949219 85.714844 C 43.921875 84.066406 43.65625 82.035156 42.300781 80.683594 L 39.679688 78.0625 C 37.351562 75.738281 37.351562 72 39.679688 69.675781 L 46.425781 62.9375 C 48.75 60.613281 52.492188 60.613281 54.816406 62.9375 L 57.4375 65.558594 C 58.792969 66.910156 60.824219 67.175781 62.476562 66.203125 C 66.480469 63.878906 70.78125 62.113281 75.285156 60.90625 C 77.140625 60.40625 78.378906 58.789062 78.378906 56.875 L 78.378906 53.253906 C 78.378906 49.988281 81.027344 47.3125 84.328125 47.3125 L 93.839844 47.3125 C 97.109375 47.3125 99.789062 49.960938 99.789062 53.253906 L 99.789062 56.964844 C 99.789062 58.875 101.027344 60.496094 102.882812 60.996094 C 107.386719 62.203125 111.6875 63.96875 115.691406 66.292969 C 117.34375 67.261719 119.375 67 120.730469 65.644531 L 123.351562 63.027344 C 125.675781 60.699219 129.445312 60.699219 131.742188 63.027344 L 138.457031 69.765625 C 140.726562 71.914062 140.816406 75.796875 138.457031 78.152344 L 135.835938 80.769531 C 134.484375 82.183594 134.1875 84.125 135.191406 85.804688 C 137.515625 89.804688 139.285156 94.101562 140.492188 98.605469 C 140.992188 100.460938 142.582031 101.695312 144.527344 101.695312 L 148.238281 101.695312 C 151.503906 101.695312 154.1875 104.34375 154.1875 107.640625 L 154.1875 117.144531 C 154.1875 120.410156 151.503906 123.089844 148.238281 123.089844 L 144.527344 123.089844 C 142.609375 123.089844 140.992188 124.324219 140.492188 126.179688 C 139.285156 130.683594 137.515625 134.980469 135.191406 138.980469 C 134.21875 140.628906 134.484375 142.660156 135.835938 144.011719 L 138.457031 146.632812 C 140.785156 148.957031 140.785156 152.722656 138.457031 155.019531 L 131.742188 161.730469 C 130.652344 162.875 129.003906 163.464844 127.53125 163.464844 C 126 163.464844 124.5 162.875 123.320312 161.730469 L 120.699219 159.109375 C 119.34375 157.757812 117.3125 157.492188 115.664062 158.433594 C 114.691406 158.992188 113.691406 159.523438 112.660156 160.050781 C 111.746094 160.523438 110.804688 160.933594 109.863281 161.347656 C 109.773438 161.347656 109.097656 162.964844 107.09375 163.847656 Z M 72.398438 164.289062 L 72.398438 176.414062 C 72.398438 178.238281 73.902344 179.738281 75.699219 179.738281 L 102 179.738281 C 103.824219 179.738281 105.324219 178.238281 105.324219 176.414062 L 105.324219 164.289062 Z M 67.246094 158.699219 L 67.246094 149.222656 C 67.246094 148.632812 67.335938 148.046875 67.511719 147.515625 C 58.527344 141.953125 51.929688 133.09375 49.28125 122.824219 C 44.480469 121.589844 40.710938 117.820312 39.445312 113.082031 C 39.296875 112.496094 39.738281 111.878906 40.445312 111.996094 L 48.015625 112.847656 C 47.984375 110.347656 48.21875 107.550781 48.691406 105.078125 L 41.300781 104.226562 C 40.679688 104.167969 40.296875 103.460938 40.652344 102.871094 C 42.976562 98.753906 46.925781 96.074219 51.605469 95.691406 C 58.203125 81.035156 72.8125 71.414062 89.15625 71.414062 C 99.640625 71.414062 109.214844 75.328125 116.457031 81.773438 C 123.734375 88.214844 128.710938 97.222656 129.976562 107.375 C 131.65625 109.050781 132.890625 111.171875 133.511719 113.496094 C 133.65625 114.085938 133.214844 114.703125 132.507812 114.585938 L 130.242188 114.320312 C 130.125 116.9375 129.769531 119.5 129.179688 122.03125 L 131.683594 122.324219 C 132.304688 122.382812 132.6875 123.089844 132.332031 123.679688 C 131.035156 126.0625 129.09375 127.976562 126.765625 129.238281 C 125 133.183594 122.671875 136.773438 119.816406 139.921875 C 117.078125 143.011719 113.867188 145.660156 110.304688 147.78125 C 110.421875 148.25 110.480469 148.722656 110.480469 149.222656 L 110.480469 158.699219 C 110.480469 158.816406 110.480469 158.964844 110.480469 159.082031 L 114.78125 156.875 C 117.136719 155.519531 120.023438 155.902344 121.9375 157.816406 L 124.558594 160.433594 C 125.351562 161.257812 126.441406 161.671875 127.503906 161.671875 C 128.5625 161.671875 129.652344 161.257812 130.449219 160.464844 L 137.164062 153.753906 C 138.78125 152.136719 138.78125 149.488281 137.164062 147.867188 L 134.542969 145.25 C 132.628906 143.335938 132.246094 140.421875 133.597656 138.097656 C 135.835938 134.214844 137.574219 130.0625 138.722656 125.738281 C 139.429688 123.117188 141.726562 121.324219 144.464844 121.324219 L 148.175781 121.324219 C 150.476562 121.324219 152.332031 119.46875 152.332031 117.175781 L 152.332031 107.667969 C 152.332031 105.375 150.476562 103.488281 148.175781 103.488281 L 144.464844 103.488281 C 141.757812 103.488281 139.429688 101.722656 138.722656 99.105469 C 137.546875 94.75 135.835938 90.601562 133.597656 86.746094 C 132.246094 84.390625 132.628906 81.507812 134.542969 79.59375 L 137.164062 76.976562 C 138.78125 75.355469 138.78125 72.707031 137.164062 71.089844 L 130.449219 64.378906 C 128.828125 62.761719 126.175781 62.761719 124.558594 64.378906 L 121.9375 67 C 120.023438 68.910156 117.105469 69.292969 114.78125 67.941406 C 110.890625 65.703125 106.738281 63.96875 102.410156 62.820312 C 99.789062 62.113281 97.992188 59.789062 97.992188 57.082031 L 97.992188 53.253906 C 97.992188 52.109375 97.523438 51.046875 96.785156 50.3125 C 96.019531 49.546875 94.988281 49.078125 93.839844 49.078125 L 84.328125 49.078125 C 82.03125 49.078125 80.144531 50.960938 80.144531 53.253906 L 80.144531 56.964844 C 80.144531 59.671875 78.378906 61.996094 75.757812 62.703125 C 71.398438 63.851562 67.246094 65.585938 63.386719 67.824219 C 61.03125 69.175781 58.144531 68.792969 56.230469 66.882812 L 53.609375 64.261719 C 51.988281 62.644531 49.339844 62.644531 47.71875 64.261719 L 41.003906 70.972656 C 39.386719 72.589844 39.386719 75.238281 41.003906 76.855469 L 43.625 79.476562 C 45.539062 81.390625 45.921875 84.304688 44.570312 86.628906 C 42.332031 90.511719 40.59375 94.660156 39.445312 98.988281 C 38.738281 101.605469 36.410156 103.371094 33.699219 103.371094 L 29.902344 103.371094 C 27.605469 103.371094 25.71875 105.257812 25.71875 107.550781 L 25.71875 117.058594 C 25.71875 119.351562 27.605469 121.207031 29.902344 121.207031 L 33.613281 121.207031 C 36.320312 121.207031 38.648438 122.972656 39.355469 125.621094 C 39.945312 127.796875 40.652344 129.917969 41.503906 131.976562 C 42.359375 134.066406 43.359375 136.066406 44.480469 138.011719 C 45.835938 140.363281 45.453125 143.25 43.539062 145.160156 L 40.917969 147.78125 C 40.121094 148.574219 39.710938 149.664062 39.710938 150.722656 C 39.710938 151.78125 40.121094 152.871094 40.917969 153.664062 L 47.632812 160.375 C 49.25 161.992188 51.902344 161.992188 53.523438 160.375 L 56.144531 157.757812 C 58.058594 155.84375 60.972656 155.460938 63.300781 156.816406 L 67.214844 158.875 C 67.246094 158.84375 67.246094 158.757812 67.246094 158.699219 Z M 68.335938 145.925781 C 69.367188 144.511719 71.046875 143.601562 72.902344 143.601562 L 73.253906 143.601562 C 73.136719 132.066406 65.65625 132.832031 65.332031 118.527344 C 59.117188 119.382812 59.824219 124.148438 51.253906 123.148438 C 53.875 132.625 60.03125 140.746094 68.335938 145.925781 Z M 104.882812 143.601562 C 106.828125 143.601562 108.566406 144.632812 109.566406 146.160156 C 115.871094 142.335938 120.964844 136.832031 124.292969 130.242188 C 122.527344 130.800781 120.582031 131.003906 118.609375 130.769531 C 112.71875 130.09375 112.011719 127.5625 108.773438 125.179688 C 108.652344 129.238281 108.300781 132.800781 107.417969 134.800781 C 106.210938 137.65625 105.386719 140.570312 104.882812 143.601562 Z M 98.40625 102.695312 C 98.40625 102.667969 98.40625 102.636719 98.40625 102.605469 C 98.199219 101.164062 97.316406 100.253906 96.195312 99.839844 C 94.046875 99.074219 91.160156 99.839844 91.160156 102.078125 L 91.367188 107.667969 C 91.394531 108.816406 89.65625 108.875 89.597656 107.726562 L 89.394531 102.078125 C 89.394531 99.664062 86.066406 98.753906 83.945312 99.429688 C 82.882812 99.753906 82.089844 100.488281 82.089844 101.664062 L 82.621094 107.199219 C 82.738281 108.347656 80.96875 108.523438 80.851562 107.34375 L 80.320312 101.664062 C 80.320312 98.132812 73.019531 97.722656 73.019531 101.253906 C 73.019531 107.050781 75.078125 118.882812 67.097656 118.5 C 67.421875 132.210938 74.902344 131.359375 75.019531 143.570312 L 103.117188 143.570312 C 103.648438 140.335938 104.53125 137.128906 105.828125 134.125 C 108.007812 129.035156 106.652344 110.757812 106.652344 104.933594 C 106.652344 97.605469 100.144531 99.398438 100.203125 102.726562 C 100.230469 103.34375 100.289062 103.019531 100.171875 103.578125 L 100.082031 108.375 C 100.054688 109.523438 98.316406 109.492188 98.316406 108.347656 Z M 99.289062 100.078125 C 101.761719 96.632812 108.417969 97.164062 108.417969 104.902344 C 108.417969 105.636719 108.449219 106.460938 108.449219 107.34375 C 114.101562 106.078125 114.722656 102.546875 121.761719 103.34375 C 124.058594 103.609375 126.148438 104.433594 127.945312 105.636719 C 124.675781 86.980469 108.390625 73.148438 89.15625 73.148438 C 73.785156 73.148438 60.03125 82.007812 53.550781 95.632812 C 58.058594 95.898438 60 97.488281 62.03125 99.429688 C 63.800781 101.105469 65.800781 102.988281 71.308594 104.195312 C 71.25 103.109375 71.222656 102.105469 71.222656 101.253906 C 71.222656 96.367188 78.613281 95.839844 81.207031 99.132812 C 83.296875 96.722656 88.273438 97.015625 90.277344 99.546875 C 92.339844 97.074219 97.257812 97.191406 99.289062 100.078125 Z M 108.476562 109.167969 C 108.625 113.703125 108.832031 118.351562 108.800781 123.117188 C 112.894531 125.621094 113.128906 128.386719 118.816406 129.035156 C 123.292969 129.535156 127.589844 127.535156 130.125 123.882812 L 121.730469 122.941406 C 118.226562 122.53125 117.8125 117.675781 118.960938 114.730469 C 119.699219 112.847656 121.082031 111.464844 122.996094 111.699219 L 131.390625 112.640625 C 129.769531 108.523438 126 105.609375 121.554688 105.109375 C 115.105469 104.402344 114.808594 107.875 108.476562 109.167969 Z M 66.039062 116.675781 C 66.507812 116.585938 68.160156 116.644531 68.304688 116.644531 C 70.101562 116.175781 70.898438 114.496094 71.25 112.347656 C 71.546875 110.464844 71.515625 108.199219 71.429688 106.050781 C 59.617188 103.636719 62.121094 98.398438 54.167969 97.488281 C 49.691406 96.988281 45.394531 98.988281 42.859375 102.636719 L 51.195312 103.578125 C 54.699219 103.992188 55.113281 108.847656 53.964844 111.789062 C 53.226562 113.671875 51.84375 115.054688 49.929688 114.820312 L 41.5625 113.878906 C 43.183594 117.96875 46.953125 120.910156 51.402344 121.414062 C 59.617188 122.324219 58.085938 117.292969 66.039062 116.675781 Z M 49.75 112.996094 L 50.105469 113.023438 C 53.019531 113.347656 53.875 105.609375 50.988281 105.285156 L 50.429688 105.226562 C 49.929688 107.90625 49.75 110.257812 49.75 112.996094 Z M 128.503906 114.113281 L 122.789062 113.464844 C 119.875 113.144531 119.019531 120.882812 121.90625 121.207031 L 127.414062 121.824219 C 128.03125 119.292969 128.386719 116.703125 128.503906 114.113281 Z M 128.503906 114.113281 " fill-opacity="1" fill-rule="nonzero"/></g><g fill="#3d392f" fill-opacity="1"><g transform="translate(60.361494, 32.259241)"><g><path d="M 1.671875 0 L 1.671875 -12.84375 L 7.15625 -12.84375 C 7.945312 -12.84375 8.613281 -12.71875 9.15625 -12.46875 C 9.707031 -12.226562 10.125 -11.875 10.40625 -11.40625 C 10.6875 -10.945312 10.828125 -10.40625 10.828125 -9.78125 C 10.828125 -9.21875 10.6875 -8.71875 10.40625 -8.28125 C 10.132812 -7.84375 9.742188 -7.492188 9.234375 -7.234375 L 9.234375 -7.046875 C 10.035156 -6.835938 10.65625 -6.453125 11.09375 -5.890625 C 11.539062 -5.335938 11.765625 -4.65625 11.765625 -3.84375 C 11.765625 -2.613281 11.390625 -1.664062 10.640625 -1 C 9.898438 -0.332031 8.800781 0 7.34375 0 Z M 6.625 -7.71875 C 7.8125 -7.71875 8.40625 -8.253906 8.40625 -9.328125 C 8.40625 -9.867188 8.257812 -10.269531 7.96875 -10.53125 C 7.675781 -10.800781 7.226562 -10.9375 6.625 -10.9375 L 4.203125 -10.9375 L 4.203125 -7.71875 Z M 7.09375 -2.015625 C 8.488281 -2.015625 9.1875 -2.648438 9.1875 -3.921875 C 9.1875 -5.203125 8.488281 -5.84375 7.09375 -5.84375 L 4.203125 -5.84375 L 4.203125 -2.015625 Z M 7.09375 -2.015625 "/></g></g></g><g fill="#3d392f" fill-opacity="1"><g transform="translate(72.929853, 32.259241)"><g><path d="M 5.4375 -10.03125 C 6.757812 -10.03125 7.769531 -9.742188 8.46875 -9.171875 C 9.164062 -8.597656 9.515625 -7.722656 9.515625 -6.546875 L 9.515625 0 L 7.65625 0 L 7.125 -1.328125 L 7.0625 -1.328125 C 6.632812 -0.804688 6.1875 -0.421875 5.71875 -0.171875 C 5.25 0.0664062 4.609375 0.1875 3.796875 0.1875 C 2.921875 0.1875 2.191406 -0.0625 1.609375 -0.5625 C 1.035156 -1.070312 0.75 -1.863281 0.75 -2.9375 C 0.75 -3.976562 1.113281 -4.742188 1.84375 -5.234375 C 2.582031 -5.722656 3.679688 -6 5.140625 -6.0625 L 6.859375 -6.125 L 6.859375 -6.546875 C 6.859375 -7.066406 6.722656 -7.445312 6.453125 -7.6875 C 6.179688 -7.925781 5.804688 -8.046875 5.328125 -8.046875 C 4.847656 -8.046875 4.378906 -7.972656 3.921875 -7.828125 C 3.460938 -7.691406 3.007812 -7.523438 2.5625 -7.328125 L 1.671875 -9.140625 C 2.191406 -9.410156 2.773438 -9.625 3.421875 -9.78125 C 4.066406 -9.945312 4.738281 -10.03125 5.4375 -10.03125 Z M 6.859375 -4.546875 L 5.8125 -4.515625 C 4.945312 -4.492188 4.347656 -4.335938 4.015625 -4.046875 C 3.679688 -3.765625 3.515625 -3.390625 3.515625 -2.921875 C 3.515625 -2.503906 3.632812 -2.207031 3.875 -2.03125 C 4.113281 -1.863281 4.425781 -1.78125 4.8125 -1.78125 C 5.382812 -1.78125 5.867188 -1.953125 6.265625 -2.296875 C 6.660156 -2.640625 6.859375 -3.125 6.859375 -3.75 Z M 7.6875 -13.0625 C 7.6875 -12.15625 7.210938 -11.582031 6.265625 -11.34375 L 6.171875 -10.703125 L 4.640625 -10.703125 L 4.4375 -12 C 4.882812 -12.070312 5.1875 -12.179688 5.34375 -12.328125 C 5.5 -12.484375 5.578125 -12.671875 5.578125 -12.890625 C 5.578125 -13.078125 5.515625 -13.21875 5.390625 -13.3125 C 5.265625 -13.414062 5.101562 -13.46875 4.90625 -13.46875 C 4.664062 -13.46875 4.453125 -13.445312 4.265625 -13.40625 C 4.078125 -13.375 3.882812 -13.328125 3.6875 -13.265625 L 3.6875 -14.734375 C 3.851562 -14.796875 4.082031 -14.84375 4.375 -14.875 C 4.664062 -14.914062 4.953125 -14.9375 5.234375 -14.9375 C 6.054688 -14.9375 6.671875 -14.773438 7.078125 -14.453125 C 7.484375 -14.128906 7.6875 -13.664062 7.6875 -13.0625 Z M 7.6875 -13.0625 "/></g></g></g><g fill="#3d392f" fill-opacity="1"><g transform="translate(83.80182, 32.259241)"><g><path d="M 5.640625 0.1875 C 4.679688 0.1875 3.84375 -0.00390625 3.125 -0.390625 C 2.414062 -0.785156 1.863281 -1.359375 1.46875 -2.109375 C 1.070312 -2.867188 0.875 -3.78125 0.875 -4.84375 C 0.875 -5.90625 1.070312 -6.8125 1.46875 -7.5625 C 1.863281 -8.320312 2.414062 -8.894531 3.125 -9.28125 C 3.84375 -9.675781 4.679688 -9.875 5.640625 -9.875 C 6.585938 -9.875 7.421875 -9.675781 8.140625 -9.28125 C 8.859375 -8.894531 9.414062 -8.320312 9.8125 -7.5625 C 10.207031 -6.8125 10.40625 -5.90625 10.40625 -4.84375 C 10.40625 -3.78125 10.207031 -2.867188 9.8125 -2.109375 C 9.414062 -1.359375 8.859375 -0.785156 8.140625 -0.390625 C 7.421875 -0.00390625 6.585938 0.1875 5.640625 0.1875 Z M 5.640625 -1.875 C 7.140625 -1.875 7.890625 -2.863281 7.890625 -4.84375 C 7.890625 -5.863281 7.695312 -6.613281 7.3125 -7.09375 C 6.925781 -7.570312 6.367188 -7.8125 5.640625 -7.8125 C 4.128906 -7.8125 3.375 -6.820312 3.375 -4.84375 C 3.375 -2.863281 4.128906 -1.875 5.640625 -1.875 Z M 5.640625 -1.875 "/></g></g><g transform="translate(95.069398, 32.259241)"><g/></g><g transform="translate(99.314515, 32.259241)"><g><path d="M 6.6875 -2.3125 L 7.328125 -0.515625 C 7.054688 -0.296875 6.722656 -0.125 6.328125 0 C 5.929688 0.125 5.476562 0.1875 4.96875 0.1875 C 3.925781 0.1875 3.128906 -0.0976562 2.578125 -0.671875 C 2.035156 -1.242188 1.765625 -2.078125 1.765625 -3.171875 L 1.765625 -7.765625 L 0.296875 -7.765625 L 0.296875 -9.703125 L 1.765625 -9.703125 L 1.765625 -11.59375 L 4.203125 -11.984375 L 4.203125 -9.703125 L 6.953125 -9.703125 L 6.953125 -7.765625 L 4.203125 -7.765625 L 4.203125 -3.34375 C 4.203125 -2.863281 4.300781 -2.507812 4.5 -2.28125 C 4.695312 -2.0625 4.988281 -1.953125 5.375 -1.953125 C 5.800781 -1.953125 6.175781 -2.070312 6.5 -2.3125 Z M 6.6875 -2.3125 "/></g></g><g transform="translate(106.846741, 32.259241)"><g><path d="M 1.390625 0 L 1.390625 -9.6875 L 3.765625 -9.6875 L 3.765625 -8.25 L 3.953125 -8.21875 C 4.179688 -8.757812 4.484375 -9.15625 4.859375 -9.40625 C 5.242188 -9.65625 5.710938 -9.78125 6.265625 -9.78125 C 6.804688 -9.78125 7.222656 -9.6875 7.515625 -9.5 L 7.109375 -7.40625 L 6.921875 -7.359375 C 6.765625 -7.429688 6.609375 -7.476562 6.453125 -7.5 C 6.304688 -7.53125 6.128906 -7.546875 5.921875 -7.546875 C 5.242188 -7.546875 4.722656 -7.304688 4.359375 -6.828125 C 4.003906 -6.359375 3.828125 -5.59375 3.828125 -4.53125 L 3.828125 0 Z M 1.390625 0 "/></g></g><g transform="translate(114.44928, 32.259241)"><g><path d="M 1.390625 0 L 1.390625 -9.6875 L 3.828125 -9.6875 L 3.828125 0 Z M 3.5 -10.65625 L 1.859375 -10.65625 L -0.484375 -13.40625 L -0.484375 -13.59375 L 2.234375 -13.59375 L 3.5 -10.84375 Z M 3.5 -10.65625 "/></g></g></g><g fill="#3d392f" fill-opacity="1"><g transform="translate(51.167241, 209.224724)"><g><path d="M 4 0 L 1.671875 0 L 1.671875 -12.84375 L 5 -12.84375 L 8.25 -3.40625 L 8.421875 -3.40625 L 11.65625 -12.84375 L 14.90625 -12.84375 L 14.90625 0 L 12.5 0 L 12.5 -8.484375 L 12.28125 -8.53125 L 9.3125 0 L 7.1875 0 L 4.21875 -8.53125 L 4 -8.484375 Z M 4 0 "/></g></g><g transform="translate(67.752202, 209.224724)"><g><path d="M 3.78125 0.1875 C 3.15625 0.1875 2.613281 0.0703125 2.15625 -0.15625 C 1.707031 -0.382812 1.359375 -0.71875 1.109375 -1.15625 C 0.859375 -1.601562 0.734375 -2.140625 0.734375 -2.765625 C 0.734375 -3.335938 0.859375 -3.816406 1.109375 -4.203125 C 1.359375 -4.597656 1.738281 -4.914062 2.25 -5.15625 C 2.769531 -5.40625 3.441406 -5.597656 4.265625 -5.734375 C 4.847656 -5.828125 5.289062 -5.929688 5.59375 -6.046875 C 5.894531 -6.160156 6.097656 -6.285156 6.203125 -6.421875 C 6.304688 -6.566406 6.359375 -6.75 6.359375 -6.96875 C 6.359375 -7.269531 6.25 -7.503906 6.03125 -7.671875 C 5.820312 -7.835938 5.460938 -7.921875 4.953125 -7.921875 C 4.421875 -7.921875 3.910156 -7.800781 3.421875 -7.5625 C 2.929688 -7.320312 2.507812 -7.003906 2.15625 -6.609375 L 1.984375 -6.609375 L 0.953125 -8.140625 C 1.453125 -8.691406 2.054688 -9.117188 2.765625 -9.421875 C 3.472656 -9.722656 4.242188 -9.875 5.078125 -9.875 C 6.359375 -9.875 7.285156 -9.601562 7.859375 -9.0625 C 8.441406 -8.519531 8.734375 -7.742188 8.734375 -6.734375 L 8.734375 -2.53125 C 8.734375 -2.09375 8.921875 -1.875 9.296875 -1.875 C 9.441406 -1.875 9.585938 -1.898438 9.734375 -1.953125 L 9.859375 -1.921875 L 10.03125 -0.234375 C 9.894531 -0.140625 9.707031 -0.0625 9.46875 0 C 9.226562 0.0507812 8.960938 0.078125 8.671875 0.078125 C 8.097656 0.078125 7.644531 -0.03125 7.3125 -0.25 C 6.988281 -0.476562 6.757812 -0.832031 6.625 -1.3125 L 6.4375 -1.328125 C 5.957031 -0.316406 5.070312 0.1875 3.78125 0.1875 Z M 4.546875 -1.640625 C 5.109375 -1.640625 5.554688 -1.828125 5.890625 -2.203125 C 6.234375 -2.578125 6.40625 -3.101562 6.40625 -3.78125 L 6.40625 -4.765625 L 6.234375 -4.796875 C 6.085938 -4.679688 5.894531 -4.582031 5.65625 -4.5 C 5.425781 -4.425781 5.085938 -4.347656 4.640625 -4.265625 C 4.109375 -4.179688 3.726562 -4.03125 3.5 -3.8125 C 3.269531 -3.601562 3.15625 -3.300781 3.15625 -2.90625 C 3.15625 -2.488281 3.273438 -2.171875 3.515625 -1.953125 C 3.765625 -1.742188 4.109375 -1.640625 4.546875 -1.640625 Z M 4.546875 -1.640625 "/></g></g><g transform="translate(77.973881, 209.224724)"><g><path d="M 2.609375 -10.859375 C 2.171875 -10.859375 1.8125 -10.988281 1.53125 -11.25 C 1.257812 -11.519531 1.125 -11.863281 1.125 -12.28125 C 1.125 -12.695312 1.257812 -13.039062 1.53125 -13.3125 C 1.8125 -13.582031 2.171875 -13.71875 2.609375 -13.71875 C 2.898438 -13.71875 3.160156 -13.65625 3.390625 -13.53125 C 3.617188 -13.40625 3.796875 -13.234375 3.921875 -13.015625 C 4.046875 -12.804688 4.109375 -12.5625 4.109375 -12.28125 C 4.109375 -12.007812 4.046875 -11.765625 3.921875 -11.546875 C 3.796875 -11.328125 3.617188 -11.15625 3.390625 -11.03125 C 3.160156 -10.914062 2.898438 -10.859375 2.609375 -10.859375 Z M 1.390625 0 L 1.390625 -9.6875 L 3.828125 -9.6875 L 3.828125 0 Z M 1.390625 0 "/></g></g><g transform="translate(83.194584, 209.224724)"><g><path d="M 1.390625 0 L 1.390625 -9.6875 L 3.734375 -9.6875 L 3.734375 -8.265625 L 3.921875 -8.234375 C 4.523438 -9.328125 5.503906 -9.875 6.859375 -9.875 C 7.972656 -9.875 8.789062 -9.566406 9.3125 -8.953125 C 9.84375 -8.347656 10.109375 -7.460938 10.109375 -6.296875 L 10.109375 0 L 7.671875 0 L 7.671875 -6 C 7.671875 -6.644531 7.539062 -7.109375 7.28125 -7.390625 C 7.03125 -7.679688 6.617188 -7.828125 6.046875 -7.828125 C 5.347656 -7.828125 4.800781 -7.597656 4.40625 -7.140625 C 4.019531 -6.691406 3.828125 -5.984375 3.828125 -5.015625 L 3.828125 0 Z M 1.390625 0 "/></g></g><g transform="translate(94.550053, 209.224724)"><g><path d="M 6.6875 -2.3125 L 7.328125 -0.515625 C 7.054688 -0.296875 6.722656 -0.125 6.328125 0 C 5.929688 0.125 5.476562 0.1875 4.96875 0.1875 C 3.925781 0.1875 3.128906 -0.0976562 2.578125 -0.671875 C 2.035156 -1.242188 1.765625 -2.078125 1.765625 -3.171875 L 1.765625 -7.765625 L 0.296875 -7.765625 L 0.296875 -9.703125 L 1.765625 -9.703125 L 1.765625 -11.59375 L 4.203125 -11.984375 L 4.203125 -9.703125 L 6.953125 -9.703125 L 6.953125 -7.765625 L 4.203125 -7.765625 L 4.203125 -3.34375 C 4.203125 -2.863281 4.300781 -2.507812 4.5 -2.28125 C 4.695312 -2.0625 4.988281 -1.953125 5.375 -1.953125 C 5.800781 -1.953125 6.175781 -2.070312 6.5 -2.3125 Z M 6.6875 -2.3125 "/></g></g><g transform="translate(102.082279, 209.224724)"><g><path d="M 3.78125 0.1875 C 3.15625 0.1875 2.613281 0.0703125 2.15625 -0.15625 C 1.707031 -0.382812 1.359375 -0.71875 1.109375 -1.15625 C 0.859375 -1.601562 0.734375 -2.140625 0.734375 -2.765625 C 0.734375 -3.335938 0.859375 -3.816406 1.109375 -4.203125 C 1.359375 -4.597656 1.738281 -4.914062 2.25 -5.15625 C 2.769531 -5.40625 3.441406 -5.597656 4.265625 -5.734375 C 4.847656 -5.828125 5.289062 -5.929688 5.59375 -6.046875 C 5.894531 -6.160156 6.097656 -6.285156 6.203125 -6.421875 C 6.304688 -6.566406 6.359375 -6.75 6.359375 -6.96875 C 6.359375 -7.269531 6.25 -7.503906 6.03125 -7.671875 C 5.820312 -7.835938 5.460938 -7.921875 4.953125 -7.921875 C 4.421875 -7.921875 3.910156 -7.800781 3.421875 -7.5625 C 2.929688 -7.320312 2.507812 -7.003906 2.15625 -6.609375 L 1.984375 -6.609375 L 0.953125 -8.140625 C 1.453125 -8.691406 2.054688 -9.117188 2.765625 -9.421875 C 3.472656 -9.722656 4.242188 -9.875 5.078125 -9.875 C 6.359375 -9.875 7.285156 -9.601562 7.859375 -9.0625 C 8.441406 -8.519531 8.734375 -7.742188 8.734375 -6.734375 L 8.734375 -2.53125 C 8.734375 -2.09375 8.921875 -1.875 9.296875 -1.875 C 9.441406 -1.875 9.585938 -1.898438 9.734375 -1.953125 L 9.859375 -1.921875 L 10.03125 -0.234375 C 9.894531 -0.140625 9.707031 -0.0625 9.46875 0 C 9.226562 0.0507812 8.960938 0.078125 8.671875 0.078125 C 8.097656 0.078125 7.644531 -0.03125 7.3125 -0.25 C 6.988281 -0.476562 6.757812 -0.832031 6.625 -1.3125 L 6.4375 -1.328125 C 5.957031 -0.316406 5.070312 0.1875 3.78125 0.1875 Z M 4.546875 -1.640625 C 5.109375 -1.640625 5.554688 -1.828125 5.890625 -2.203125 C 6.234375 -2.578125 6.40625 -3.101562 6.40625 -3.78125 L 6.40625 -4.765625 L 6.234375 -4.796875 C 6.085938 -4.679688 5.894531 -4.582031 5.65625 -4.5 C 5.425781 -4.425781 5.085938 -4.347656 4.640625 -4.265625 C 4.109375 -4.179688 3.726562 -4.03125 3.5 -3.8125 C 3.269531 -3.601562 3.15625 -3.300781 3.15625 -2.90625 C 3.15625 -2.488281 3.273438 -2.171875 3.515625 -1.953125 C 3.765625 -1.742188 4.109375 -1.640625 4.546875 -1.640625 Z M 4.546875 -1.640625 "/></g></g><g transform="translate(112.303958, 209.224724)"><g><path d="M 2.609375 -10.859375 C 2.171875 -10.859375 1.8125 -10.988281 1.53125 -11.25 C 1.257812 -11.519531 1.125 -11.863281 1.125 -12.28125 C 1.125 -12.695312 1.257812 -13.039062 1.53125 -13.3125 C 1.8125 -13.582031 2.171875 -13.71875 2.609375 -13.71875 C 2.898438 -13.71875 3.160156 -13.65625 3.390625 -13.53125 C 3.617188 -13.40625 3.796875 -13.234375 3.921875 -13.015625 C 4.046875 -12.804688 4.109375 -12.5625 4.109375 -12.28125 C 4.109375 -12.007812 4.046875 -11.765625 3.921875 -11.546875 C 3.796875 -11.328125 3.617188 -11.15625 3.390625 -11.03125 C 3.160156 -10.914062 2.898438 -10.859375 2.609375 -10.859375 Z M 1.390625 0 L 1.390625 -9.6875 L 3.828125 -9.6875 L 3.828125 0 Z M 1.390625 0 "/></g></g><g transform="translate(117.524661, 209.224724)"><g><path d="M 1.390625 0 L 1.390625 -9.6875 L 3.734375 -9.6875 L 3.734375 -8.265625 L 3.921875 -8.234375 C 4.523438 -9.328125 5.503906 -9.875 6.859375 -9.875 C 7.972656 -9.875 8.789062 -9.566406 9.3125 -8.953125 C 9.84375 -8.347656 10.109375 -7.460938 10.109375 -6.296875 L 10.109375 0 L 7.671875 0 L 7.671875 -6 C 7.671875 -6.644531 7.539062 -7.109375 7.28125 -7.390625 C 7.03125 -7.679688 6.617188 -7.828125 6.046875 -7.828125 C 5.347656 -7.828125 4.800781 -7.597656 4.40625 -7.140625 C 4.019531 -6.691406 3.828125 -5.984375 3.828125 -5.015625 L 3.828125 0 Z M 1.390625 0 "/></g></g></g></svg>