<svg xmlns="http://www.w3.org/2000/svg" xmlns:xlink="http://www.w3.org/1999/xlink" width="832" zoomAndPan="magnify" viewBox="0 0 624 335.999987" height="448" preserveAspectRatio="xMidYMid meet" version="1.0"><defs><filter x="0%" y="0%" width="100%" height="100%" id="d34b1cc198"><feColorMatrix values="0 0 0 0 1 0 0 0 0 1 0 0 0 0 1 0 0 0 1 0" color-interpolation-filters="sRGB"/></filter><mask id="2c5afa3f24"><g filter="url(#d34b1cc198)"><rect x="-62.4" width="748.8" fill="#000000" y="-33.599999" height="403.199984" fill-opacity="0.2196"/></g></mask><clipPath id="4cb673d56a"><path d="M 0 0 L 624 0 L 624 336 L 0 336 Z M 0 0 " clip-rule="nonzero"/></clipPath><clipPath id="41f130d10c"><path d="M 22.5 0 L 601.5 0 C 613.925781 0 624 10.074219 624 22.5 L 624 313.5 C 624 325.925781 613.925781 336 601.5 336 L 22.5 336 C 10.074219 336 0 325.925781 0 313.5 L 0 22.5 C 0 10.074219 10.074219 0 22.5 0 " clip-rule="nonzero"/></clipPath><clipPath id="82b5b65a9d"><rect x="0" width="624" y="0" height="336"/></clipPath><clipPath id="e95b536bdf"><path d="M 372 183.050781 L 569.242188 183.050781 L 569.242188 278.082031 L 372 278.082031 Z M 372 183.050781 " clip-rule="nonzero"/></clipPath><clipPath id="4f3b2cf077"><path d="M 60 94.132812 L 290.25 94.132812 L 290.25 278.542969 L 60 278.542969 Z M 60 94.132812 " clip-rule="nonzero"/></clipPath></defs><rect x="-62.4" width="748.8" fill="#ffffff" y="-33.599999" height="403.199984" fill-opacity="1"/><rect x="-62.4" width="748.8" fill="#ffffff" y="-33.599999" height="403.199984" fill-opacity="1"/><g mask="url(#2c5afa3f24)"><g><g clip-path="url(#82b5b65a9d)"><g clip-path="url(#4cb673d56a)"><g clip-path="url(#41f130d10c)"><rect x="-137.28" width="898.56" fill="#ffffff" height="483.839981" y="-73.919997" fill-opacity="1"/></g></g></g></g></g><path fill="#61b1e6" d="M 396.707031 251.160156 L 399.347656 247.9375 C 399.730469 247.46875 400.425781 247.402344 400.894531 247.785156 C 401.363281 248.171875 401.433594 248.859375 401.046875 249.328125 L 399.15625 251.640625 L 402.070312 251.746094 C 402.675781 251.765625 403.148438 252.273438 403.128906 252.878906 C 403.109375 253.472656 402.621094 253.9375 402.03125 253.9375 C 402.015625 253.9375 402.003906 253.9375 401.992188 253.9375 L 398.054688 253.796875 C 399.570312 255.457031 402.007812 256.09375 404.207031 255.1875 L 409.164062 253.136719 C 408.71875 249.773438 410.535156 246.386719 413.824219 245.027344 L 480.15625 217.640625 L 477.941406 217.722656 C 477.929688 217.722656 477.914062 217.722656 477.902344 217.722656 C 477.316406 217.722656 476.828125 217.257812 476.804688 216.667969 C 476.78125 216.058594 477.253906 215.550781 477.859375 215.527344 L 481.621094 215.390625 C 480.109375 213.667969 477.632812 212.992188 475.398438 213.914062 L 433.917969 231.042969 L 433.917969 231.039062 L 433.15625 231.355469 L 400.003906 245.046875 C 397.546875 246.0625 396.21875 248.648438 396.707031 251.160156 " fill-opacity="1" fill-rule="nonzero"/><g clip-path="url(#e95b536bdf)"><path fill="#61b1e6" d="M 557.554688 268.898438 C 557.46875 270.285156 553.652344 273.691406 552.183594 273.691406 L 388.28125 273.691406 C 386.867188 273.632812 383.066406 269.683594 382.992188 268.203125 L 379.660156 204.078125 L 381.84375 204.078125 L 385.089844 266.980469 C 385.238281 269.890625 387.738281 272.167969 390.777344 272.167969 L 549.769531 272.167969 C 552.8125 272.167969 555.308594 269.886719 555.457031 266.976562 L 557.3125 230.503906 C 557.316406 230.496094 557.320312 230.492188 557.324219 230.488281 C 557.375 230.316406 557.371094 230.144531 557.339844 229.984375 L 558.65625 204.078125 L 560.839844 204.078125 Z M 556.457031 204.078125 L 555.203125 228.757812 C 546.96875 226.570312 538.214844 226.625 529.988281 228.746094 C 521.191406 222.808594 510.390625 219.722656 499.761719 220.023438 C 499.859375 220.765625 499.851562 221.503906 499.734375 222.226562 C 509.316406 221.941406 519.015625 224.539062 527.152344 229.566406 C 521.714844 231.3125 516.570312 233.960938 512.046875 237.480469 C 511.566406 237.855469 511.484375 238.542969 511.855469 239.023438 C 512.074219 239.300781 512.398438 239.445312 512.722656 239.445312 C 512.960938 239.445312 513.199219 239.367188 513.398438 239.210938 C 525.015625 230.175781 540.910156 227.074219 555.089844 230.996094 L 554.199219 248.433594 C 549.484375 245.222656 543.660156 243.59375 537.949219 243.964844 C 537.34375 244 536.882812 244.523438 536.925781 245.128906 C 536.964844 245.738281 537.492188 246.191406 538.09375 246.152344 C 543.738281 245.777344 549.511719 247.535156 553.988281 250.957031 C 554.011719 250.976562 554.042969 250.96875 554.070312 250.988281 L 553.265625 266.863281 C 553.175781 268.609375 551.640625 269.972656 549.769531 269.972656 L 390.777344 269.972656 C 388.910156 269.972656 387.375 268.609375 387.285156 266.863281 L 385.738281 236.933594 C 392.617188 236.507812 399.605469 237.65625 406.058594 240.167969 L 408.898438 238.996094 C 405.460938 237.488281 401.859375 236.335938 398.175781 235.605469 C 407.09375 229.089844 419.359375 227.082031 429.941406 230.308594 L 433.003906 229.042969 C 420.636719 224.242188 406.050781 226.433594 395.679688 234.726562 C 395.542969 234.835938 395.445312 234.976562 395.378906 235.128906 C 392.144531 234.675781 388.875 234.546875 385.625 234.742188 L 384.042969 204.078125 Z M 387.585938 186.460938 L 554.480469 186.460938 C 555.089844 186.460938 555.582031 186.949219 555.582031 187.558594 C 555.582031 188.164062 555.089844 188.65625 554.480469 188.65625 L 387.585938 188.65625 C 386.976562 188.65625 386.484375 188.164062 386.484375 187.558594 C 386.484375 186.949219 386.976562 186.460938 387.585938 186.460938 Z M 551.351562 183.429688 L 389.890625 183.429688 C 380.007812 183.429688 372 191.421875 372 201.28125 L 372 211.316406 C 372 212.765625 373.179688 213.941406 374.632812 213.941406 C 375.035156 213.941406 375.40625 213.835938 375.75 213.671875 L 378.597656 268.425781 C 378.777344 272.007812 384.304688 278.082031 388.277344 278.082031 L 552.183594 278.082031 C 556.019531 278.082031 561.765625 272.800781 561.949219 269.113281 L 564.78125 213.253906 C 565.246094 213.671875 565.84375 213.941406 566.515625 213.941406 C 567.96875 213.941406 569.148438 212.765625 569.148438 211.316406 L 569.148438 204.078125 L 569.242188 204.078125 L 569.242188 201.28125 C 569.242188 191.421875 561.230469 183.429688 551.351562 183.429688 " fill-opacity="1" fill-rule="nonzero"/></g><path fill="#61b1e6" d="M 411.371094 253.171875 L 414.007812 249.953125 C 414.390625 249.480469 415.085938 249.414062 415.554688 249.796875 C 416.023438 250.183594 416.09375 250.871094 415.707031 251.339844 L 413.8125 253.652344 L 416.730469 253.757812 C 417.339844 253.777344 417.8125 254.285156 417.792969 254.890625 C 417.769531 255.484375 417.28125 255.949219 416.691406 255.949219 C 416.679688 255.949219 416.667969 255.949219 416.652344 255.949219 L 412.714844 255.808594 C 414.230469 257.46875 416.667969 258.105469 418.867188 257.199219 L 430.890625 252.234375 C 430.816406 251.847656 430.75 251.457031 430.734375 251.050781 C 430.601562 246.816406 433.945312 243.265625 438.1875 243.132812 L 454.132812 242.636719 L 494.261719 226.066406 C 496.652344 225.082031 497.957031 222.605469 497.578125 220.164062 L 495.265625 223.148438 C 495.050781 223.429688 494.726562 223.574219 494.398438 223.574219 C 494.160156 223.574219 493.925781 223.5 493.726562 223.347656 C 493.242188 222.976562 493.15625 222.285156 493.527344 221.808594 L 495.207031 219.636719 L 492.605469 219.734375 C 492.589844 219.734375 492.578125 219.734375 492.566406 219.734375 C 491.976562 219.734375 491.488281 219.269531 491.464844 218.679688 C 491.445312 218.074219 491.917969 217.5625 492.527344 217.539062 L 496.28125 217.402344 C 494.773438 215.679688 492.292969 215.003906 490.058594 215.925781 L 414.664062 247.058594 C 412.207031 248.074219 410.878906 250.660156 411.371094 253.171875 " fill-opacity="1" fill-rule="nonzero"/><path fill="#61b1e6" d="M 433.011719 249.882812 L 436.617188 247.800781 C 437.136719 247.5 437.8125 247.675781 438.121094 248.203125 C 438.425781 248.726562 438.242188 249.398438 437.71875 249.703125 L 435.125 251.195312 L 437.816406 252.324219 C 438.378906 252.554688 438.644531 253.199219 438.40625 253.757812 C 438.230469 254.179688 437.820312 254.429688 437.394531 254.429688 C 437.253906 254.429688 437.109375 254.40625 436.96875 254.34375 L 433.335938 252.828125 C 434.167969 254.914062 436.21875 256.371094 438.601562 256.296875 L 520.152344 253.761719 C 522.734375 253.679688 524.832031 251.828125 525.34375 249.40625 L 522.125 251.386719 C 521.945312 251.496094 521.746094 251.550781 521.546875 251.550781 C 521.183594 251.550781 520.820312 251.363281 520.613281 251.027344 C 520.292969 250.507812 520.457031 249.835938 520.972656 249.519531 L 523.3125 248.082031 L 520.84375 247.253906 C 520.269531 247.058594 519.960938 246.4375 520.152344 245.863281 C 520.347656 245.289062 520.96875 244.984375 521.542969 245.171875 L 525.109375 246.367188 C 524.308594 244.222656 522.226562 242.714844 519.808594 242.792969 L 438.257812 245.328125 C 435.597656 245.410156 433.441406 247.363281 433.011719 249.882812 " fill-opacity="1" fill-rule="nonzero"/><path fill="#61b1e6" d="M 524.402344 258.828125 C 519.636719 255.808594 513.929688 254.417969 508.304688 254.90625 C 502.6875 255.398438 497.296875 257.757812 493.136719 261.554688 C 492.683594 261.964844 492.652344 262.65625 493.0625 263.105469 C 493.28125 263.34375 493.578125 263.460938 493.875 263.460938 C 494.140625 263.460938 494.40625 263.367188 494.617188 263.175781 C 498.425781 259.699219 503.355469 257.539062 508.496094 257.089844 C 513.632812 256.648438 518.863281 257.917969 523.222656 260.679688 C 523.742188 261.007812 524.417969 260.855469 524.738281 260.34375 C 525.066406 259.828125 524.914062 259.152344 524.402344 258.828125 " fill-opacity="1" fill-rule="nonzero"/><path fill="#61b1e6" d="M 432.5 260.894531 C 423.722656 256.921875 413.085938 257.441406 404.746094 262.261719 C 404.21875 262.566406 404.039062 263.238281 404.34375 263.761719 C 404.546875 264.113281 404.917969 264.308594 405.296875 264.308594 C 405.484375 264.308594 405.675781 264.261719 405.847656 264.164062 C 413.585938 259.699219 423.449219 259.203125 431.589844 262.894531 C 432.144531 263.144531 432.796875 262.902344 433.046875 262.347656 C 433.296875 261.796875 433.050781 261.144531 432.5 260.894531 " fill-opacity="1" fill-rule="nonzero"/><path fill="#61b1e6" d="M 477.019531 237.207031 C 476.519531 237.550781 476.398438 238.238281 476.746094 238.734375 C 476.960938 239.039062 477.300781 239.203125 477.648438 239.203125 C 477.867188 239.203125 478.085938 239.140625 478.277344 239.007812 C 484.351562 234.777344 492.957031 234.585938 499.214844 238.546875 C 499.726562 238.875 500.40625 238.722656 500.730469 238.210938 C 501.058594 237.699219 500.90625 237.019531 500.394531 236.695312 C 493.410156 232.273438 483.796875 232.488281 477.019531 237.207031 " fill-opacity="1" fill-rule="nonzero"/><path fill="#61b1e6" d="M 400.054688 120.011719 L 402.636719 170.003906 C 402.761719 172.4375 404.847656 174.347656 407.386719 174.347656 L 533.90625 174.347656 C 536.445312 174.347656 538.53125 172.4375 538.65625 170.003906 L 541.199219 120.011719 L 543.652344 120.011719 L 541 173.25 C 540.835938 174.308594 538.152344 176.757812 537.082031 176.84375 L 404.671875 176.847656 C 403.570312 176.667969 400.910156 173.835938 400.769531 172.703125 L 398.074219 120.011719 Z M 538.996094 120.011719 L 536.460938 169.890625 C 536.394531 171.160156 535.273438 172.152344 533.90625 172.152344 L 407.386719 172.152344 C 406.019531 172.152344 404.894531 171.160156 404.832031 169.894531 L 402.257812 120.011719 Z M 402.367188 105.335938 L 539.550781 105.335938 C 540.15625 105.335938 540.648438 105.828125 540.648438 106.433594 C 540.648438 107.039062 540.15625 107.53125 539.550781 107.53125 L 402.367188 107.53125 C 401.761719 107.53125 401.269531 107.039062 401.269531 106.433594 C 401.269531 105.828125 401.761719 105.335938 402.367188 105.335938 Z M 391.722656 128.121094 C 392.914062 128.121094 393.882812 127.15625 393.882812 125.964844 L 393.882812 124.21875 L 396.375 172.921875 C 396.527344 176.078125 401.160156 181.230469 404.617188 181.230469 L 537.082031 181.230469 C 540.417969 181.230469 545.238281 176.742188 545.394531 173.488281 L 547.699219 127.175781 C 548.09375 127.730469 548.707031 128.121094 549.441406 128.121094 C 550.636719 128.121094 551.605469 127.15625 551.605469 125.964844 L 551.605469 120.011719 L 551.679688 120.011719 L 551.679688 117.714844 C 551.679688 109.609375 545.097656 103.039062 536.976562 103.039062 L 404.261719 103.039062 C 396.140625 103.039062 389.558594 109.609375 389.558594 117.714844 L 389.558594 125.964844 C 389.558594 127.15625 390.527344 128.121094 391.722656 128.121094 " fill-opacity="1" fill-rule="nonzero"/><path fill="#61b1e6" d="M 504.386719 161.570312 L 435.292969 161.570312 C 433.824219 161.570312 432.632812 162.757812 432.632812 164.222656 L 432.632812 166.785156 C 432.632812 168.25 433.824219 169.4375 435.292969 169.4375 L 504.386719 169.4375 C 505.855469 169.4375 507.042969 168.25 507.042969 166.785156 L 507.042969 164.222656 C 507.042969 162.757812 505.855469 161.570312 504.386719 161.570312 " fill-opacity="1" fill-rule="nonzero"/><path fill="#61b1e6" d="M 427.535156 162.046875 L 428.4375 161.695312 C 431.484375 160.519531 434.679688 159.921875 437.941406 159.921875 L 501.269531 159.921875 C 505.316406 159.921875 509.261719 161.066406 512.683594 163.230469 C 512.867188 163.34375 513.070312 163.402344 513.273438 163.402344 C 513.636719 163.402344 513.992188 163.21875 514.203125 162.890625 C 514.527344 162.375 514.375 161.699219 513.863281 161.375 C 510.089844 158.988281 505.734375 157.726562 501.269531 157.726562 L 437.941406 157.726562 C 434.40625 157.726562 430.941406 158.375 427.644531 159.648438 L 426.742188 159.996094 C 426.171875 160.21875 425.890625 160.851562 426.113281 161.417969 C 426.332031 161.984375 426.972656 162.265625 427.535156 162.046875 " fill-opacity="1" fill-rule="nonzero"/><path fill="#61b1e6" d="M 505.574219 154.4375 L 433.550781 154.4375 L 433.550781 153.339844 L 505.574219 153.339844 Z M 506.675781 151.144531 L 432.453125 151.144531 C 431.84375 151.144531 431.351562 151.636719 431.351562 152.242188 L 431.351562 155.535156 C 431.351562 156.140625 431.84375 156.628906 432.453125 156.628906 L 506.675781 156.628906 C 507.285156 156.628906 507.777344 156.140625 507.777344 155.535156 L 507.777344 152.242188 C 507.777344 151.636719 507.285156 151.144531 506.675781 151.144531 " fill-opacity="1" fill-rule="nonzero"/><path fill="#61b1e6" d="M 441.449219 142.410156 C 443.6875 141.671875 446.191406 141.820312 448.320312 142.816406 C 448.871094 143.074219 449.109375 143.726562 448.851562 144.277344 C 448.664062 144.671875 448.265625 144.910156 447.855469 144.910156 C 447.695312 144.910156 447.539062 144.875 447.390625 144.804688 C 445.757812 144.042969 443.847656 143.929688 442.140625 144.492188 C 441.5625 144.679688 440.945312 144.371094 440.75 143.796875 C 440.5625 143.222656 440.875 142.601562 441.449219 142.410156 Z M 455.03125 137.25 C 456.796875 136.726562 458.714844 136.75 460.460938 137.3125 C 461.039062 137.496094 461.355469 138.117188 461.167969 138.691406 C 461.019531 139.15625 460.585938 139.453125 460.125 139.453125 C 460.011719 139.453125 459.898438 139.433594 459.785156 139.398438 C 458.460938 138.972656 456.996094 138.957031 455.664062 139.351562 C 455.074219 139.523438 454.46875 139.191406 454.292969 138.613281 C 454.121094 138.035156 454.449219 137.421875 455.03125 137.25 Z M 459.507812 130.5 C 461.523438 130.027344 463.667969 130.253906 465.539062 131.125 C 466.089844 131.382812 466.328125 132.035156 466.074219 132.585938 C 465.882812 132.984375 465.488281 133.21875 465.074219 133.21875 C 464.917969 133.21875 464.761719 133.1875 464.609375 133.117188 C 463.183594 132.453125 461.546875 132.277344 460.011719 132.640625 C 459.402344 132.777344 458.828125 132.410156 458.6875 131.820312 C 458.550781 131.230469 458.917969 130.640625 459.507812 130.5 Z M 469.171875 145.105469 C 469.046875 145.605469 468.597656 145.933594 468.109375 145.933594 C 468.019531 145.933594 467.929688 145.925781 467.839844 145.902344 C 466.152344 145.476562 464.421875 145.375 462.699219 145.589844 C 462.109375 145.648438 461.550781 145.242188 461.472656 144.636719 C 461.394531 144.035156 461.820312 143.488281 462.425781 143.414062 C 464.425781 143.160156 466.425781 143.28125 468.375 143.773438 C 468.964844 143.921875 469.324219 144.519531 469.171875 145.105469 Z M 473.109375 136.414062 L 478.058594 136.296875 C 478.640625 136.3125 479.171875 136.765625 479.183594 137.367188 C 479.199219 137.976562 478.71875 138.480469 478.109375 138.492188 L 473.160156 138.609375 C 473.152344 138.609375 473.144531 138.609375 473.136719 138.609375 C 472.539062 138.609375 472.050781 138.132812 472.035156 137.535156 C 472.023438 136.933594 472.5 136.429688 473.109375 136.414062 Z M 480.925781 141.59375 C 483.050781 141.761719 485.140625 142.578125 486.820312 143.890625 C 487.296875 144.265625 487.378906 144.957031 487.007812 145.429688 C 486.789062 145.707031 486.46875 145.851562 486.140625 145.851562 C 485.90625 145.851562 485.664062 145.777344 485.460938 145.617188 C 484.121094 144.566406 482.449219 143.914062 480.75 143.78125 C 480.148438 143.734375 479.695312 143.203125 479.742188 142.601562 C 479.792969 141.996094 480.335938 141.550781 480.925781 141.59375 Z M 492.769531 141.96875 C 492.886719 141.371094 493.457031 140.988281 494.058594 141.101562 C 495.726562 141.429688 497.332031 142.128906 498.707031 143.121094 C 499.195312 143.480469 499.308594 144.164062 498.953125 144.65625 C 498.738281 144.953125 498.402344 145.109375 498.0625 145.109375 C 497.835938 145.109375 497.609375 145.039062 497.414062 144.902344 C 496.296875 144.089844 494.988281 143.523438 493.636719 143.257812 C 493.039062 143.140625 492.652344 142.5625 492.769531 141.96875 Z M 437.9375 149.792969 C 459.210938 149.679688 478.339844 149.652344 499.414062 149.652344 C 505.578125 149.652344 507.507812 148.605469 507.875 147.320312 C 508.367188 145.585938 507.273438 143.738281 505.808594 142.6875 C 502.464844 140.28125 497.613281 140.957031 494.246094 138.585938 C 492.175781 137.125 490.941406 134.6875 488.8125 133.316406 C 484.820312 130.734375 479.441406 132.789062 474.8125 131.679688 C 471.386719 130.855469 468.570312 128.332031 465.148438 127.480469 C 460.683594 126.367188 456.019531 128.292969 452.125 130.75 C 448.234375 133.207031 444.644531 136.265625 440.3125 137.816406 C 438.085938 138.613281 435.683594 139.003906 433.65625 140.21875 C 431.625 141.433594 430.027344 143.851562 430.753906 146.097656 C 431.628906 148.820312 435.070312 149.808594 437.9375 149.792969 " fill-opacity="1" fill-rule="nonzero"/><path fill="#61b1e6" d="M 426.335938 59.378906 L 427.929688 91.140625 C 428.015625 92.910156 429.496094 94.296875 431.300781 94.296875 L 509.929688 94.296875 C 511.734375 94.296875 513.214844 92.910156 513.300781 91.140625 L 514.867188 59.378906 L 517.144531 59.378906 L 515.441406 94.375 C 515.261719 94.914062 514.039062 96.050781 513.632812 96.179688 L 427.535156 96.179688 C 426.941406 95.902344 425.765625 94.613281 425.632812 94.152344 L 423.878906 59.378906 Z M 512.667969 59.378906 L 511.105469 91.03125 C 511.074219 91.632812 510.558594 92.101562 509.929688 92.101562 L 431.300781 92.101562 C 430.671875 92.101562 430.15625 91.632812 430.125 91.035156 L 428.539062 59.378906 Z M 425.53125 50.847656 L 516.160156 50.847656 C 516.765625 50.847656 517.257812 51.339844 517.257812 51.945312 C 517.257812 52.554688 516.765625 53.042969 516.160156 53.042969 L 425.53125 53.042969 C 424.921875 53.042969 424.429688 52.554688 424.429688 51.945312 C 424.429688 51.339844 424.921875 50.847656 425.53125 50.847656 Z M 418.496094 64.734375 C 419.019531 64.734375 419.457031 64.441406 419.707031 64.023438 L 421.234375 94.367188 C 421.355469 96.816406 424.664062 100.570312 427.371094 100.570312 L 513.632812 100.570312 C 516.222656 100.570312 519.6875 97.300781 519.808594 94.742188 L 521.335938 63.660156 C 521.5 64.273438 522.03125 64.734375 522.695312 64.734375 C 523.484375 64.734375 524.125 64.097656 524.125 63.3125 L 524.125 59.378906 L 524.171875 59.378906 L 524.171875 57.863281 C 524.171875 52.507812 519.824219 48.167969 514.457031 48.167969 L 426.78125 48.167969 C 421.417969 48.167969 417.066406 52.507812 417.066406 57.863281 L 417.066406 63.3125 C 417.066406 64.097656 417.707031 64.734375 418.496094 64.734375 " fill-opacity="1" fill-rule="nonzero"/><path fill="#61b1e6" d="M 481.703125 74.855469 C 482.957031 74.476562 484.316406 74.25 485.757812 74.25 L 485.78125 74.25 C 488.324219 74.253906 490.660156 74.949219 492.53125 76.101562 C 494.1875 74.980469 496.332031 74.332031 498.730469 74.304688 C 499.128906 73.347656 499.273438 72.335938 499.085938 71.328125 C 498.421875 67.761719 493.96875 65.597656 489.140625 66.496094 C 484.316406 67.394531 480.941406 71.011719 481.609375 74.574219 C 481.625 74.675781 481.679688 74.761719 481.703125 74.855469 " fill-opacity="1" fill-rule="nonzero"/><path fill="#61b1e6" d="M 466.082031 72.652344 C 468.59375 72.652344 471.222656 73.546875 473.480469 75.167969 C 474.703125 76.042969 475.722656 77.074219 476.535156 78.1875 C 477.351562 77.183594 478.398438 76.316406 479.667969 75.664062 C 479.597656 75.433594 479.492188 75.21875 479.445312 74.976562 C 479.089844 73.070312 479.578125 71.171875 480.648438 69.492188 C 479.28125 68.222656 477.394531 67.242188 475.179688 66.851562 C 470.347656 65.996094 465.917969 68.203125 465.285156 71.773438 C 465.226562 72.097656 465.238281 72.417969 465.246094 72.738281 C 465.527344 72.714844 465.792969 72.652344 466.082031 72.652344 " fill-opacity="1" fill-rule="nonzero"/><path fill="#61b1e6" d="M 489.261719 80.691406 C 489.527344 79.539062 490.09375 78.523438 490.84375 77.632812 C 489.40625 76.890625 487.664062 76.445312 485.777344 76.445312 C 482.207031 76.4375 479.148438 78 477.730469 80.238281 C 478.714844 82.371094 478.945312 84.621094 478.347656 86.617188 C 479.9375 88.394531 482.65625 89.574219 485.753906 89.578125 C 487.96875 89.582031 489.96875 88.964844 491.527344 87.980469 C 489.609375 85.886719 488.660156 83.261719 489.261719 80.691406 " fill-opacity="1" fill-rule="nonzero"/><path fill="#61b1e6" d="M 465.097656 79.8125 C 464.253906 80.886719 463.152344 81.429688 462.632812 81.023438 C 462.113281 80.621094 462.378906 79.421875 463.21875 78.347656 C 464.0625 77.273438 465.164062 76.726562 465.679688 77.132812 C 466.199219 77.539062 465.9375 78.738281 465.097656 79.8125 Z M 472.199219 76.949219 C 468.855469 74.550781 464.855469 74.238281 462.394531 75.929688 L 462.394531 75.925781 L 462.390625 75.929688 C 461.917969 76.253906 461.480469 76.625 461.140625 77.101562 C 459.015625 80.046875 460.527344 84.75 464.511719 87.613281 C 468.5 90.472656 473.449219 90.402344 475.570312 87.460938 C 477.691406 84.515625 476.183594 79.808594 472.199219 76.949219 " fill-opacity="1" fill-rule="nonzero"/><path fill="#61b1e6" d="M 496.25 81.859375 C 495.789062 83.144531 494.910156 84.003906 494.292969 83.78125 C 493.671875 83.558594 493.546875 82.335938 494.007812 81.054688 C 494.472656 79.769531 495.347656 78.910156 495.96875 79.132812 C 496.585938 79.355469 496.714844 80.578125 496.25 81.859375 Z M 491.402344 81.1875 C 490.578125 84.71875 493.789062 88.480469 498.574219 89.589844 C 503.355469 90.699219 507.894531 88.734375 508.71875 85.203125 C 509.542969 81.671875 506.332031 77.90625 501.550781 76.796875 C 496.769531 75.6875 492.226562 77.65625 491.402344 81.1875 " fill-opacity="1" fill-rule="nonzero"/><path fill="#61b1e6" d="M 458.632812 77.152344 C 457.570312 76.816406 456.398438 76.628906 455.171875 76.625 C 453.324219 76.625 451.609375 77.039062 450.1875 77.746094 C 450.316406 77.945312 450.453125 78.140625 450.5625 78.355469 C 451.667969 80.519531 451.59375 83.179688 450.363281 85.644531 C 449.976562 86.425781 449.453125 87.140625 448.875 87.832031 C 450.480469 89.019531 452.699219 89.757812 455.148438 89.761719 C 457.605469 89.765625 459.828125 89.03125 461.441406 87.84375 C 460.050781 86.441406 459 84.800781 458.441406 83.058594 C 457.777344 80.980469 457.871094 78.910156 458.632812 77.152344 " fill-opacity="1" fill-rule="nonzero"/><path fill="#61b1e6" d="M 455.152344 74.433594 L 455.175781 74.433594 C 456.851562 74.433594 458.414062 74.773438 459.828125 75.3125 C 460.691406 74.339844 461.804688 73.617188 463.097656 73.183594 C 463.035156 72.582031 463.011719 71.984375 463.117188 71.390625 C 463.136719 71.285156 463.183594 71.191406 463.203125 71.089844 C 463.117188 70.789062 463.042969 70.488281 462.898438 70.207031 C 461.246094 66.972656 456.363281 66.15625 451.988281 68.378906 C 449.03125 69.886719 447.101562 72.386719 446.660156 74.847656 C 447.417969 75.167969 448.105469 75.582031 448.710938 76.082031 C 450.511719 75.058594 452.710938 74.433594 455.152344 74.433594 " fill-opacity="1" fill-rule="nonzero"/><path fill="#61b1e6" d="M 444.164062 78.804688 C 444.726562 78.460938 445.761719 79.125 446.480469 80.285156 C 447.195312 81.445312 447.324219 82.664062 446.761719 83.007812 C 446.203125 83.355469 445.167969 82.695312 444.453125 81.53125 C 443.734375 80.371094 443.605469 79.152344 444.164062 78.804688 Z M 443.667969 89.226562 C 448.042969 87.003906 450.25 82.582031 448.601562 79.351562 C 446.953125 76.121094 442.070312 75.300781 437.695312 77.527344 C 433.320312 79.75 431.113281 84.171875 432.761719 87.402344 C 434.410156 90.636719 439.292969 91.453125 443.667969 89.226562 " fill-opacity="1" fill-rule="nonzero"/><g clip-path="url(#4f3b2cf077)"><path fill="#5eb1e6" d="M 285.59375 191.09375 C 285.59375 191.839844 284.914062 192.492188 284.144531 192.492188 L 66.015625 192.492188 C 65.277344 192.492188 64.65625 191.851562 64.65625 191.09375 L 64.65625 183.074219 C 64.65625 182.316406 65.277344 181.679688 66.015625 181.679688 L 284.144531 181.679688 C 284.914062 181.679688 285.59375 182.328125 285.59375 183.074219 Z M 274.824219 217.675781 L 273.257812 232.816406 C 272.0625 244.835938 270.863281 256.675781 269.664062 268.136719 C 269.332031 271.304688 266.566406 273.882812 263.5 273.882812 L 86.65625 273.882812 C 83.574219 273.882812 80.855469 271.324219 80.585938 268.140625 L 79.371094 256.449219 C 78.570312 248.683594 77.753906 240.78125 76.898438 232.804688 C 76.113281 225.246094 75.324219 217.550781 74.539062 209.738281 L 220.28125 209.738281 C 221.566406 209.738281 222.609375 208.695312 222.609375 207.40625 C 222.609375 206.117188 221.566406 205.074219 220.28125 205.074219 L 74.074219 205.074219 C 73.808594 202.445312 73.546875 199.804688 73.28125 197.152344 L 276.953125 197.152344 C 276.222656 204.113281 275.519531 210.941406 274.824219 217.675781 Z M 89.566406 122.847656 L 213.644531 122.847656 C 214.933594 122.847656 215.972656 121.804688 215.972656 120.515625 C 215.972656 119.230469 214.933594 118.1875 213.644531 118.1875 L 89.09375 118.1875 C 88.890625 116.175781 88.6875 114.160156 88.488281 112.125 L 261.742188 112.125 C 260.648438 122.410156 259.636719 132.382812 258.699219 142.175781 C 257.808594 150.441406 256.976562 158.582031 256.15625 166.601562 L 255.566406 172.398438 C 255.316406 174.855469 252.996094 177.015625 250.601562 177.015625 L 99.558594 177.015625 C 97.164062 177.015625 94.933594 174.902344 94.683594 172.394531 L 94.089844 166.601562 C 93.273438 158.582031 92.441406 150.441406 91.550781 142.1875 C 90.886719 135.820312 90.226562 129.386719 89.566406 122.847656 Z M 85.917969 107.464844 L 81.957031 107.464844 C 81.472656 107.464844 81.058594 107.003906 81.058594 106.628906 L 81.058594 99.730469 C 81.058594 99.25 81.496094 98.792969 81.957031 98.792969 L 268.292969 98.792969 C 268.730469 98.792969 269.101562 99.222656 269.101562 99.730469 L 269.101562 106.628906 C 269.101562 107.023438 268.753906 107.464844 268.292969 107.464844 Z M 284.144531 177.015625 L 258.703125 177.015625 C 259.488281 175.773438 260.042969 174.378906 260.199219 172.871094 L 260.789062 167.074219 C 261.605469 159.0625 262.4375 150.929688 263.332031 142.652344 C 264.277344 132.699219 265.316406 122.558594 266.425781 112.125 L 268.292969 112.125 C 271.300781 112.125 273.753906 109.660156 273.753906 106.628906 L 273.753906 99.730469 C 273.753906 96.644531 271.300781 94.132812 268.292969 94.132812 L 81.957031 94.132812 C 78.945312 94.132812 76.402344 96.695312 76.402344 99.730469 L 76.402344 106.628906 C 76.402344 109.609375 78.945312 112.125 81.957031 112.125 L 83.816406 112.125 C 84.851562 122.5625 85.886719 132.714844 86.925781 142.679688 C 87.8125 150.929688 88.644531 159.0625 89.460938 167.074219 L 90.050781 172.863281 C 90.203125 174.382812 90.734375 175.78125 91.496094 177.015625 L 66.015625 177.015625 C 62.695312 177.015625 60 179.734375 60 183.074219 L 60 191.09375 C 60 194.433594 62.695312 197.152344 66.015625 197.152344 L 68.609375 197.152344 C 69.828125 209.472656 71.046875 221.558594 72.269531 233.296875 C 73.128906 241.273438 73.941406 249.171875 74.746094 256.929688 L 75.949219 268.578125 C 76.421875 274.164062 81.125 278.542969 86.65625 278.542969 L 263.5 278.542969 C 268.96875 278.542969 273.707031 274.1875 274.292969 268.625 C 275.492188 257.152344 276.691406 245.308594 277.886719 233.289062 L 279.453125 218.152344 C 280.164062 211.28125 280.890625 204.265625 281.636719 197.152344 L 284.144531 197.152344 C 287.511719 197.152344 290.25 194.433594 290.25 191.09375 L 290.25 183.074219 C 290.25 179.734375 287.511719 177.015625 284.144531 177.015625 " fill-opacity="1" fill-rule="nonzero"/></g><path fill="#5eb1e6" d="M 259.757812 264.636719 C 259.839844 264.648438 259.921875 264.652344 260.003906 264.652344 C 261.179688 264.652344 262.191406 263.761719 262.3125 262.5625 L 267.566406 212.03125 C 267.699219 210.75 266.769531 209.605469 265.492188 209.472656 C 264.183594 209.3125 263.070312 210.269531 262.9375 211.546875 L 257.683594 262.078125 C 257.554688 263.359375 258.480469 264.503906 259.757812 264.636719 " fill-opacity="1" fill-rule="nonzero"/><path fill="#5eb1e6" d="M 247.414062 169.730469 C 247.492188 169.742188 247.574219 169.742188 247.65625 169.742188 C 248.832031 169.742188 249.84375 168.851562 249.964844 167.652344 L 254.390625 124.484375 C 254.519531 123.203125 253.589844 122.058594 252.3125 121.929688 C 251.035156 121.792969 249.890625 122.730469 249.761719 124.007812 L 245.335938 167.175781 C 245.207031 168.457031 246.136719 169.601562 247.414062 169.730469 " fill-opacity="1" fill-rule="nonzero"/></svg>